<?xml version="1.0" encoding="UTF-8"?>
<svg version="1.1" xmlns="http://www.w3.org/2000/svg" width="225" height="225">
<path d="M0 0 C74.25 0 148.5 0 225 0 C225 74.25 225 148.5 225 225 C150.75 225 76.5 225 0 225 C0 150.75 0 76.5 0 0 Z " fill="#010101" transform="translate(0,0)"/>
<path d="M0 0 C0.33 0 0.66 0 1 0 C1 23.1 1 46.2 1 70 C13.21 70 25.42 70 38 70 C36.71390155 73.85829535 35.60105369 77.04715889 33.82333374 80.59384155 C33.39146255 81.46033325 32.95959137 82.32682495 32.51463318 83.21957397 C32.04493607 84.15177765 31.57523895 85.08398132 31.09130859 86.04443359 C30.59358444 87.04017395 30.09586029 88.03591431 29.58305359 89.06182861 C27.94196819 92.34260947 26.29523871 95.62052251 24.6484375 98.8984375 C23.50751433 101.17655253 22.36694499 103.45484479 21.22671509 105.73330688 C18.53457688 111.11073518 15.83888473 116.48636694 13.14144957 121.86113894 C10.06936731 127.98291144 7.00185405 134.10696925 3.93471408 140.23121905 C-2.37179246 152.82335415 -8.68400416 165.41262221 -15 178 C-15.33 178 -15.66 178 -16 178 C-16 155.23 -16 132.46 -16 109 C-28.87 109 -41.74 109 -55 109 C-53.64751119 104.94253357 -52.41349542 101.57847801 -50.53125 97.83203125 C-49.80591064 96.38316528 -49.80591064 96.38316528 -49.06591797 94.9050293 C-48.29078857 93.37422729 -48.29078857 93.37422729 -47.5 91.8125 C-46.96391113 90.74749268 -46.42782227 89.68248535 -45.87548828 88.58520508 C-41.0320683 78.99517614 -36.04232893 69.48648349 -31 60 C-25.91398409 50.40911569 -20.86554579 40.80953445 -16.04956055 31.07983398 C-12.93981038 24.82188354 -9.6845867 18.6428573 -6.41210938 12.46875 C-4.2227412 8.33680233 -2.07002635 4.19364562 0 0 Z " fill="#FDFDFD" transform="translate(123,23)"/>
<path d="M0 0 C0.33 0 0.66 0 1 0 C1 34.65 1 69.3 1 105 C-33.65 105 -68.3 105 -104 105 C-104 104.67 -104 104.34 -104 104 C-103.15574463 103.90295776 -103.15574463 103.90295776 -102.29443359 103.80395508 C-80.37799409 101.20229907 -60.62583129 94.68628291 -43 81 C-42.09765625 80.32324219 -41.1953125 79.64648438 -40.265625 78.94921875 C-33.47480892 73.66851509 -28.15188432 67.8691791 -23 61 C-22.09314453 59.83210938 -22.09314453 59.83210938 -21.16796875 58.640625 C-15.73732854 51.33439122 -11.83031332 43.22503771 -8 35 C-7.47148437 33.865625 -6.94296875 32.73125 -6.3984375 31.5625 C-4.79615728 27.48071352 -3.78453324 23.46738946 -2.875 19.1875 C-2.70323242 18.39939941 -2.53146484 17.61129883 -2.35449219 16.79931641 C-1.16985128 11.20850139 -0.36834649 5.70937064 0 0 Z " fill="#FCFCFC" transform="translate(224,120)"/>
<path d="M0 0 C0.33 0 0.66 0 1 0 C1.06469482 0.56283691 1.12938965 1.12567383 1.19604492 1.70556641 C3.79770093 23.62200591 10.31371709 43.37416871 24 61 C24.67675781 61.90234375 25.35351562 62.8046875 26.05078125 63.734375 C31.33148491 70.52519108 37.1308209 75.84811568 44 81 C45.16789062 81.90685547 45.16789062 81.90685547 46.359375 82.83203125 C57.70876716 91.26790495 71.71831887 98.04322873 85.5 101.125 C86.22058594 101.29386719 86.94117187 101.46273437 87.68359375 101.63671875 C92.10610988 102.65237797 96.49978669 103.41970934 101 104 C101 104.33 101 104.66 101 105 C67.67 105 34.34 105 0 105 C0 70.35 0 35.7 0 0 Z " fill="#FCFCFC" transform="translate(0,120)"/>
<path d="M0 0 C34.65 0 69.3 0 105 0 C105 33.33 105 66.66 105 101 C104.67 101 104.34 101 104 101 C103.85304688 99.97003906 103.70609375 98.94007812 103.5546875 97.87890625 C100.10852953 75.36543115 91.46261618 56.52972891 77 39 C76.18273437 37.9790625 75.36546875 36.958125 74.5234375 35.90625 C70.52296616 31.29889602 65.81068483 27.72566624 61 24 C60.21625 23.38898437 59.4325 22.77796875 58.625 22.1484375 C51.31244168 16.73813253 43.21954643 12.82775609 35 9 C33.865625 8.47148437 32.73125 7.94296875 31.5625 7.3984375 C27.48071352 5.79615728 23.46738946 4.78453324 19.1875 3.875 C18.39939941 3.70323242 17.61129883 3.53146484 16.79931641 3.35449219 C11.20850139 2.16985128 5.70937064 1.36834649 0 1 C0 0.67 0 0.34 0 0 Z " fill="#FCFCFC" transform="translate(120,0)"/>
<path d="M0 0 C33.33 0 66.66 0 101 0 C101 0.33 101 0.66 101 1 C99.97003906 1.14695313 98.94007812 1.29390625 97.87890625 1.4453125 C75.36543115 4.89147047 56.52972891 13.53738382 39 28 C37.9790625 28.81726563 36.958125 29.63453125 35.90625 30.4765625 C31.29889602 34.47703384 27.72566624 39.18931517 24 44 C23.38898437 44.78375 22.77796875 45.5675 22.1484375 46.375 C13.85380269 57.58601326 7.1404748 71.39231054 3.875 84.9375 C3.70613281 85.60201172 3.53726562 86.26652344 3.36328125 86.95117188 C2.21389808 91.6165815 1.52297896 96.22381461 1 101 C0.67 101 0.34 101 0 101 C0 67.67 0 34.34 0 0 Z " fill="#FDFDFD" transform="translate(0,0)"/>
<path d="M0 0 C0.33 0 0.66 0 1 0 C1 23.1 1 46.2 1 70 C0.67 70 0.34 70 0 70 C-0.01030746 69.20486496 -0.02061493 68.40972992 -0.03123474 67.59049988 C-0.12917088 60.10084256 -0.23167981 52.61126847 -0.33933926 45.12174511 C-0.39452767 41.27121518 -0.44794113 37.42067759 -0.49731445 33.57006836 C-0.54501824 29.85473844 -0.59736321 26.13950036 -0.65294075 22.42428017 C-0.67333705 21.00611976 -0.69205463 19.58793419 -0.70907402 18.16972923 C-0.73317806 16.18495279 -0.7637786 14.20025845 -0.79467773 12.21557617 C-0.81022202 11.08528488 -0.8257663 9.95499359 -0.84178162 8.79045105 C-0.88252967 5.91571658 -0.88252967 5.91571658 -2 3 C-1.34 2.01 -0.68 1.02 0 0 Z " fill="#D1D1D1" transform="translate(123,23)"/>
</svg>
