<?xml version="1.0" encoding="UTF-8"?>
<svg version="1.1" xmlns="http://www.w3.org/2000/svg" width="280" height="180">
<path d="M0 0 C92.4 0 184.8 0 280 0 C280 59.4 280 118.8 280 180 C187.6 180 95.2 180 0 180 C0 120.6 0 61.2 0 0 Z " fill="#000000" transform="translate(0,0)"/>
<path d="M0 0 C3.71212386 1.6507104 6.112476 4.0305837 7.79150391 7.75634766 C9.45382492 12.09548657 10.7640706 16.52331562 12 21 C13.5778125 20.2575 13.5778125 20.2575 15.1875 19.5 C24.02073397 16.23248513 32.85043427 17.27015114 41.26953125 21.125 C41.84058594 21.41375 42.41164063 21.7025 43 22 C42.9175 21.030625 42.835 20.06125 42.75 19.0625 C42.76241682 12.9285895 45.80279409 7.42053926 49.1875 2.4375 C52.11288544 -0.09783405 52.82698789 -0.45603323 56.5 -0.6875 C59.83739283 -0.43290619 60.96459205 -0.02439214 63.8125 1.9375 C68.57641916 8.60698682 71.22401945 15.38719575 70.8515625 23.6171875 C70.81675781 24.47183594 70.78195313 25.32648437 70.74609375 26.20703125 C70.66566304 27.97910131 70.56164995 29.75026502 70.43359375 31.51953125 C70.26700681 36.6131044 70.26700681 36.6131044 72.49926758 41.05615234 C74.3248853 42.8955331 74.3248853 42.8955331 76.24389648 44.44628906 C80.66157402 48.35482511 81.9590608 53.32442632 82.37890625 59.0390625 C82.68377958 66.55677236 82.41640954 72.26685107 78.6953125 78.94140625 C77.28660398 83.11213316 79.39356966 87.11370127 81 91 C83.33580538 98.00741614 83.23706922 107.40647243 79.9375 114.0625 C79.57140625 114.74570313 79.2053125 115.42890625 78.828125 116.1328125 C77.56593165 118.97870127 78.08312357 121.10831279 79 124 C79.33 124.66 79.66 125.32 80 126 C80.08400529 127.59447464 80.10727467 129.19240545 80.09765625 130.7890625 C80.09282227 132.20058594 80.09282227 132.20058594 80.08789062 133.640625 C80.07532227 135.11789063 80.07532227 135.11789063 80.0625 136.625 C80.05798828 137.61757812 80.05347656 138.61015625 80.04882812 139.6328125 C80.03702145 142.0886016 80.020554 144.54427104 80 147 C77.03 147 74.06 147 71 147 C71.01160156 146.14277344 71.02320313 145.28554687 71.03515625 144.40234375 C71.58792798 134.00204595 71.58792798 134.00204595 68.375 124.4375 C67 122 67 122 67.0625 119.25 C67.85671227 116.4967308 68.77281855 114.45698482 70.0625 111.9375 C73.04342832 105.49695415 73.0975447 98.29761477 71.3515625 91.4609375 C70.40562914 88.88537638 69.22624145 86.45248289 68 84 C67.3941321 79.75892472 68.06179066 77.66675975 70.5 74.3125 C73.83008573 69.34108996 73.87797929 64.81454212 73 59 C70.97395962 51.39638962 66.71421684 46.89125565 60.12109375 42.84765625 C57.49751562 41.79919132 55.37908411 41.86718701 52.5625 41.875 C47.4645273 41.51134012 47.4645273 41.51134012 45.48828125 39.3359375 C44.73501843 37.92456086 43.99709377 36.50490827 43.2734375 35.078125 C40.84801952 31.12008094 37.33519092 29.37937893 33 28 C27.22940903 27.2105608 21.3004784 26.88217602 16 29.625 C11.79391808 32.95481485 8.98281661 36.52577508 6 41 C3.6796875 41.3359375 3.6796875 41.3359375 0.875 41.375 C-5.72685112 41.82434065 -10.12654062 43.79691685 -14.56640625 48.74609375 C-19.50320327 55.28629493 -19.78197949 61.94355336 -19 70 C-17.88112336 73.29051449 -16.50181103 76.49818897 -14 79 C-13.35603575 83.37895687 -14.85932608 85.72463234 -17.04296875 89.3203125 C-18.334418 91.58693772 -18.75234059 93.39957618 -19 96 C-19.06316406 96.63421875 -19.12632813 97.2684375 -19.19140625 97.921875 C-19.55395942 104.51800358 -17.66249361 110.01206257 -15 116 C-14.67 116.33 -14.34 116.66 -14 117 C-13.67154516 120.53088952 -13.71902081 122.51029341 -15.50390625 125.62109375 C-17.45286056 130.02277908 -17.33505993 133.63038061 -17.1875 138.375 C-17.17396484 139.20644531 -17.16042969 140.03789062 -17.14648438 140.89453125 C-17.11139059 142.92997066 -17.05759228 144.96507291 -17 147 C-18.47906892 147.02689216 -19.95827483 147.04634621 -21.4375 147.0625 C-22.26121094 147.07410156 -23.08492188 147.08570313 -23.93359375 147.09765625 C-26 147 -26 147 -27 146 C-27.15534394 143.46371137 -27.23840335 140.97546824 -27.25 138.4375 C-27.25394775 137.70748779 -27.25789551 136.97747559 -27.26196289 136.2253418 C-27.20348553 130.82673567 -26.15451816 126.96475923 -24 122 C-24.13093114 119.44684273 -24.76258436 117.56557129 -25.74609375 115.22265625 C-29.35546856 105.94880805 -29.12341871 96.0783061 -26.25 86.625 C-24.72747257 81.34175964 -25.41982901 79.23224765 -27.98828125 74.5390625 C-30.76454067 67.57161608 -29.94192912 58.61284183 -27.5 51.625 C-25.82734613 47.8918305 -23.77523941 45.82840543 -20.75 43.125 C-16.85603726 39.12327076 -16.56567033 35.97180713 -16.54394531 30.62646484 C-16.62231394 28.02660924 -16.76401904 25.43640122 -16.9140625 22.83984375 C-17.200127 16.57000481 -16.05521763 10.95656273 -12.5625 5.625 C-12.15128906 4.97789063 -11.74007812 4.33078125 -11.31640625 3.6640625 C-8.05470113 -0.45904249 -4.94967065 -0.65995609 0 0 Z " fill="#F3F3F3" transform="translate(116,14)"/>
<path d="M0 0 C3.32050293 3.12203609 5.82666451 6.20721583 6.2734375 10.828125 C6.58157298 21.20992033 6.58157298 21.20992033 4 24.5625 C-2.33608146 29.71056619 -7.86495883 31.66658787 -16 31.5 C-16.75539062 31.51546875 -17.51078125 31.5309375 -18.2890625 31.546875 C-24.51672857 31.50407317 -29.96302755 29.87506371 -34.56616211 25.51733398 C-38.54564093 20.93282135 -39.36846582 17.14618775 -39.2734375 11.2734375 C-38.58585365 5.55666892 -34.10901932 1.70564562 -29.83984375 -1.7421875 C-20.68353893 -8.00191182 -8.61522855 -5.97632972 0 0 Z " fill="#080808" transform="translate(159,80)"/>
<path d="M0 0 C3.32050293 3.12203609 5.82666451 6.20721583 6.2734375 10.828125 C6.58157298 21.20992033 6.58157298 21.20992033 4 24.5625 C-2.33608146 29.71056619 -7.86495883 31.66658787 -16 31.5 C-16.75539062 31.51546875 -17.51078125 31.5309375 -18.2890625 31.546875 C-24.51672857 31.50407317 -29.96302755 29.87506371 -34.56616211 25.51733398 C-38.54564093 20.93282135 -39.36846582 17.14618775 -39.2734375 11.2734375 C-38.58585365 5.55666892 -34.10901932 1.70564562 -29.83984375 -1.7421875 C-20.68353893 -8.00191182 -8.61522855 -5.97632972 0 0 Z M-32 7.8125 C-33.54235919 11.18641073 -33.64987748 14.40782009 -33 18 C-30.83726728 21.5530609 -28.86814305 23.5414145 -25 25 C-22.32766392 25.21843936 -19.79437893 25.32474486 -17.125 25.3125 C-16.43019531 25.32861328 -15.73539063 25.34472656 -15.01953125 25.36132812 C-8.97069216 25.36702383 -4.94958232 23.89827752 -0.625 19.6875 C1.41245947 16.31785549 1.77496328 14.87481639 1 11 C-1.95889417 6.24752957 -5.62021481 2.72559148 -11 1 C-20.00541425 -0.23115494 -25.39311722 1.82501248 -32 7.8125 Z " fill="#EDEDED" transform="translate(159,80)"/>
<path d="M0 0 C0.66 0 1.32 0 2 0 C6.95793617 8.5214528 6.39493175 16.44484562 6 26 C4.35328588 25.69217504 2.70764424 25.37860766 1.0625 25.0625 C-0.31228516 24.80146484 -0.31228516 24.80146484 -1.71484375 24.53515625 C-4 24 -4 24 -5 23 C-5.81662322 14.87392957 -4.78151157 8.24410048 -1 1 C-0.67 0.67 -0.34 0.34 0 0 Z " fill="#0D0D0D" transform="translate(172,22)"/>
<path d="M0 0 C0.66 0 1.32 0 2 0 C2.64690922 1.6037331 3.29248764 3.20800306 3.9375 4.8125 C4.29714844 5.70582031 4.65679687 6.59914063 5.02734375 7.51953125 C6.48628741 11.24013055 7.13672882 14.08056656 7.125 18.0625 C7.12757812 18.94035156 7.13015625 19.81820312 7.1328125 20.72265625 C7 23 7 23 6 25 C2.7 25 -0.6 25 -4 25 C-4.55790722 7.97349815 -4.55790722 7.97349815 -1 1 C-0.67 0.67 -0.34 0.34 0 0 Z " fill="#0C0C0C" transform="translate(112,22)"/>
<path d="M0 0 C2.375 0.875 2.375 0.875 4.375 2.875 C3.91346154 9.33653846 3.91346154 9.33653846 1.375 11.875 C-1.625 12.125 -1.625 12.125 -4.625 11.875 C-6.625 9.875 -6.625 9.875 -7 7 C-6.625 3.875 -6.625 3.875 -4.9375 1.4375 C-2.625 -0.125 -2.625 -0.125 0 0 Z " fill="#ECECEC" transform="translate(115.625,76.125)"/>
<path d="M0 0 C2.73145737 0.88772365 3.89120004 1.44163691 5.5 3.8125 C5.9334014 6.70184264 5.92525784 8.16342224 4.3125 10.625 C1.85092224 12.23775784 0.38934264 12.2459014 -2.5 11.8125 C-4.3125 10.75 -4.3125 10.75 -5.5 8.8125 C-5.875 5.25 -5.875 5.25 -5.5 1.8125 C-2.5 -0.1875 -2.5 -0.1875 0 0 Z " fill="#EFEFEF" transform="translate(171.5,76.1875)"/>
<path d="M0 0 C2.97 0 5.94 0 9 0 C9 3.90432869 8.31626692 6.38026598 7 10 C5.35 10 3.7 10 2 10 C0.68373308 6.38026598 0 3.90432869 0 0 Z " fill="#EDEDED" transform="translate(138,89)"/>
</svg>
