<?xml version="1.0" encoding="UTF-8"?>
<svg version="1.1" xmlns="http://www.w3.org/2000/svg" width="160" height="160">
<path d="M0 0 C1.89957501 0.90888756 3.79450786 1.82748031 5.6875 2.75 C6.74324219 3.26046875 7.79898438 3.7709375 8.88671875 4.296875 C16.93092015 8.69746698 22.53583011 15.67526444 25.9375 24.1875 C27.74791006 30.46208889 27.7654381 37.55381054 27 44 C26.47664063 44.66386719 25.95328125 45.32773437 25.4140625 46.01171875 C23.66388036 48.0454248 23.66388036 48.0454248 24.12109375 51.32421875 C25.03389293 55.14174777 26.33059912 58.29547197 28.0625 61.8125 C31 67.81882353 31 67.81882353 31 70 C28.36 70.33 25.72 70.66 23 71 C22.67 73.97 22.34 76.94 22 80 C16.34388537 80.56561146 12.77357872 78.71391278 8 76 C9.01755741 78.66130399 9.66684861 79.80516056 12.1640625 81.265625 C13.38222656 81.75289062 13.38222656 81.75289062 14.625 82.25 C16.06875 82.8275 17.5125 83.405 19 84 C18.34 89.28 17.68 94.56 17 100 C3.98344691 101.12643248 -3.28265513 98.32109625 -14 91 C-16 89 -16 89 -16.22705078 87.12060547 C-16.21657715 86.37697754 -16.20610352 85.63334961 -16.1953125 84.8671875 C-16.18886719 84.06152344 -16.18242188 83.25585938 -16.17578125 82.42578125 C-16.15902344 81.58402344 -16.14226562 80.74226563 -16.125 79.875 C-16.11597656 79.02550781 -16.10695313 78.17601563 -16.09765625 77.30078125 C-16.07405647 75.20040116 -16.03818483 73.10016556 -16 71 C-14.56570999 70.32645501 -13.12742943 69.66140299 -11.6875 69 C-10.88699219 68.62875 -10.08648437 68.2575 -9.26171875 67.875 C-7 67 -7 67 -4 67 C-3.80654541 65.21284804 -3.67322387 63.41917865 -3.5625 61.625 C-3.48128906 60.62726563 -3.40007812 59.62953125 -3.31640625 58.6015625 C-4.05928179 54.68766963 -5.01697264 53.53596592 -7.4609375 50.5078125 C-12.20709876 44.09877584 -12.18326778 38.01939376 -12.0625 30.25 C-12.05994705 29.2553624 -12.05994705 29.2553624 -12.05734253 28.2406311 C-11.9824154 17.90334716 -10.44431626 10.65872274 -3.28515625 3.10546875 C-2.53105469 2.41066406 -1.77695313 1.71585938 -1 1 C-0.67 0.67 -0.34 0.34 0 0 Z M-5 15 C-5 18.3 -5 21.6 -5 25 C-3.68 25 -2.36 25 -1 25 C-1 21.7 -1 18.4 -1 15 C-2.32 15 -3.64 15 -5 15 Z M-5 30 C-5 31.65 -5 33.3 -5 35 C-3.68 35 -2.36 35 -1 35 C-1 33.35 -1 31.7 -1 30 C-2.32 30 -3.64 30 -5 30 Z M-5 40 C-5 41.65 -5 43.3 -5 45 C-3.68 45 -2.36 45 -1 45 C-1 43.35 -1 41.7 -1 40 C-2.32 40 -3.64 40 -5 40 Z M16 41 C14.64381501 42.12534105 14.64381501 42.12534105 14.9375 45.0625 C14.958125 46.031875 14.97875 47.00125 15 48 C12.69 48 10.38 48 8 48 C8 49.32 8 50.64 8 52 C9.64574566 52.02688151 11.29161413 52.04634123 12.9375 52.0625 C14.31228516 52.07990234 14.31228516 52.07990234 15.71484375 52.09765625 C17.96593327 52.25949049 17.96593327 52.25949049 19 51 C19.07205511 49.31391034 19.08386068 47.62499341 19.0625 45.9375 C19.04896484 44.55884766 19.04896484 44.55884766 19.03515625 43.15234375 C19.02355469 42.44207031 19.01195312 41.73179688 19 41 C18.01 41 17.02 41 16 41 Z " fill="#000000" transform="translate(113,15)"/>
<path d="M0 0 C2.31 0 4.62 0 7 0 C7.66 3.63 8.32 7.26 9 11 C14.17098932 11.87643887 17.17924942 12.34150742 22 10 C22.99 10 23.98 10 25 10 C26.4606285 12.64738916 27 13.89448334 27 17 C21.65116279 22 21.65116279 22 19 22 C19 24.31 19 26.62 19 29 C19.5775 29.268125 20.155 29.53625 20.75 29.8125 C23.0325868 31.01719859 24.9737942 32.40798115 27 34 C26.125 38.75 26.125 38.75 25 41 C24.34 40.855625 23.68 40.71125 23 40.5625 C15.96301569 39.05603226 15.96301569 39.05603226 9 40 C8.34 43.63 7.68 47.26 7 51 C4.69 51 2.38 51 0 51 C-0.16435547 49.95199219 -0.16435547 49.95199219 -0.33203125 48.8828125 C-0.49058594 47.97273438 -0.64914063 47.06265625 -0.8125 46.125 C-0.96332031 45.22007813 -1.11414063 44.31515625 -1.26953125 43.3828125 C-1.83051301 40.65587522 -1.83051301 40.65587522 -5 39 C-9.06018078 39.37594266 -13.01350357 40.15437955 -17 41 C-17.99 39.68 -18.98 38.36 -20 37 C-18.85102252 34.07533004 -18.02138793 33.01476786 -15.375 31.1875 C-12.69290412 29.1349586 -12.69290412 29.1349586 -12.25 25.625 C-13.28486229 20.62316561 -15.93347516 18.83204409 -20 16 C-19.1875 13.5625 -19.1875 13.5625 -18 11 C-15 10 -15 10 -12.1875 11 C-8.63944218 12.11311618 -6.57244368 11.85058183 -3 11 C-1.72746564 7.35206816 -0.67170806 3.8063457 0 0 Z M-2.375 18.0625 C-5.26564775 21.29727248 -6.08970243 22.69428356 -6 27 C-4.40812216 30.60267091 -2.55397912 33.22301044 1 35 C5.29974141 35 7.44229578 34.40344561 10.9375 31.875 C13.24174192 29.09905409 13.24174192 29.09905409 13.625 25.5 C12.82826896 21.03830615 11.65320891 19.64274687 8 17 C3.38227787 15.48874548 1.80640573 15.5071965 -2.375 18.0625 Z " fill="#000000" transform="translate(60,22)"/>
<path d="M0 0 C4.95 0 9.9 0 15 0 C15.12383064 5.32014516 15.21444676 10.63944714 15.2746582 15.96069336 C15.2997639 17.76976132 15.33385595 19.57872822 15.37719727 21.38745117 C15.43802579 23.99162751 15.46624809 26.59446031 15.48828125 29.19921875 C15.51408768 30.00461594 15.5398941 30.81001312 15.56648254 31.63981628 C15.56867381 36.05194714 15.40568964 37.51101972 12.46948242 41.05004883 C11.65455322 41.69353271 10.83962402 42.3370166 10 43 C10 38.71 10 34.42 10 30 C8.35 30 6.7 30 5 30 C5.02618408 30.57967529 5.05236816 31.15935059 5.0793457 31.7565918 C5.18370612 34.39994875 5.24844327 37.04287199 5.3125 39.6875 C5.35439453 40.59951172 5.39628906 41.51152344 5.43945312 42.45117188 C5.51910633 46.83209808 5.41418594 49.32100666 3.09375 53.125 C-1.27328802 55.77168971 -4.81400683 55.55478341 -9.8125 55.3125 C-10.69615234 55.28994141 -11.57980469 55.26738281 -12.49023438 55.24414062 C-14.6608891 55.18547428 -16.8306669 55.09579979 -19 55 C-14.79858604 49.96922563 -10.40140657 45.31671865 -5.70507812 40.74414062 C-1.0933469 36.20895266 -0.8228828 33.4430938 -0.68359375 27.1484375 C-0.66281265 26.37440582 -0.64203156 25.60037415 -0.62062073 24.80288696 C-0.55516552 22.32701608 -0.49625913 19.85103798 -0.4375 17.375 C-0.39431093 15.69790552 -0.35069652 14.02082193 -0.30664062 12.34375 C-0.19948829 8.22927692 -0.09820955 4.11469586 0 0 Z M5 10 C5 11.65 5 13.3 5 15 C6.65 15 8.3 15 10 15 C10 13.35 10 11.7 10 10 C8.35 10 6.7 10 5 10 Z M5 20 C5 21.65 5 23.3 5 25 C6.65 25 8.3 25 10 25 C10 23.35 10 21.7 10 20 C8.35 20 6.7 20 5 20 Z " fill="#000000" transform="translate(55,95)"/>
<path d="M0 0 C4.76716839 0.581362 9.35901356 1.79974489 14 3 C14 2.34 14 1.68 14 1 C16.2458605 0.69674878 18.4971469 0.43347478 20.75 0.1875 C22.00296875 0.03667969 23.2559375 -0.11414062 24.546875 -0.26953125 C28 0 28 0 30.4375 2.28125 C32.26052154 5.45330747 32.33496523 7.39912382 32 11 C28.7 11 25.4 11 22 11 C22 12.65 22 14.3 22 16 C23.98 16 25.96 16 28 16 C26 18 26 18 23.4375 18.75 C22.633125 19.1625 21.82875 19.575 21 20 C20.67 21.98 20.34 23.96 20 26 C10.76 26 1.52 26 -8 26 C-8 21.71 -8 17.42 -8 13 C-6.35 13 -4.7 13 -3 13 C-2.86722656 12.14535156 -2.73445313 11.29070312 -2.59765625 10.41015625 C-2.42105469 9.30542969 -2.24445313 8.20070313 -2.0625 7.0625 C-1.88847656 5.96035156 -1.71445313 4.85820313 -1.53515625 3.72265625 C-1 1 -1 1 0 0 Z M2 11 C2 12.65 2 14.3 2 16 C3.65 16 5.3 16 7 16 C7 14.35 7 12.7 7 11 C5.35 11 3.7 11 2 11 Z M12 11 C12 12.65 12 14.3 12 16 C13.65 16 15.3 16 17 16 C17 14.35 17 12.7 17 11 C15.35 11 13.7 11 12 11 Z " fill="#000000" transform="translate(73,64)"/>
<path d="M0 0 C6.93 0 13.86 0 21 0 C21.33 1.98 21.66 3.96 22 6 C27.61 6.33 33.22 6.66 39 7 C35.12810156 16.67974611 35.12810156 16.67974611 31 20 C27.24100054 20.67734378 23.77541617 20.48368321 20 20 C20 19.34 20 18.68 20 18 C19.00419922 18.34224609 19.00419922 18.34224609 17.98828125 18.69140625 C17.10527344 18.97886719 16.22226563 19.26632813 15.3125 19.5625 C14.44238281 19.85253906 13.57226562 20.14257812 12.67578125 20.44140625 C10 21 10 21 5 20 C4.34 16.04 3.68 12.08 3 8 C2.01 8 1.02 8 0 8 C0 5.36 0 2.72 0 0 Z " fill="#000000" transform="translate(67,10)"/>
<path d="M0 0 C1.98 0 3.96 0 6 0 C6.02685095 2.47923801 6.04676547 4.9581884 6.0625 7.4375 C6.07087891 8.14455078 6.07925781 8.85160156 6.08789062 9.58007812 C6.09653588 11.38693559 6.05220011 13.19387603 6 15 C3.68156906 17.31843094 -2.97884677 16.35666356 -6.29882812 16.4296875 C-10.87952098 16.60801131 -13.47627679 16.82524455 -17 20 C-20.4803645 19.92897215 -22.29485909 19.61415498 -24.9375 17.3125 C-26.41325591 14.10056066 -26.06444212 12.33525198 -25 9 C-23.3125 7.0625 -23.3125 7.0625 -21 6 C-17.32706204 6.22037628 -15.63033454 6.36966546 -13 9 C-9.87803664 9.46486718 -9.87803664 9.46486718 -6.375 9.625 C-5.18648437 9.69976562 -3.99796875 9.77453125 -2.7734375 9.8515625 C-1.85820313 9.90054688 -0.94296875 9.94953125 0 10 C0 6.7 0 3.4 0 0 Z " fill="#000000" transform="translate(39,67)"/>
<path d="M0 0 C2.4375 1.5625 2.4375 1.5625 4 4 C3.75 7.75 3.75 7.75 3 11 C2.01 11.33 1.02 11.66 0 12 C0 14.97 0 17.94 0 21 C3.96 21 7.92 21 12 21 C12 22.98 12 24.96 12 27 C9.18743719 27.02684312 6.37512759 27.04676188 3.5625 27.0625 C2.76005859 27.07087891 1.95761719 27.07925781 1.13085938 27.08789062 C-0.91295221 27.0965143 -2.95683902 27.0522815 -5 27 C-6 26 -6 26 -6.09765625 22.83984375 C-6.08025391 20.90818359 -6.08025391 20.90818359 -6.0625 18.9375 C-6.05347656 17.64714844 -6.04445313 16.35679688 -6.03515625 15.02734375 C-6.02355469 14.02832031 -6.01195312 13.02929688 -6 12 C-6.99 11.67 -7.98 11.34 -9 11 C-9.75 7.75 -9.75 7.75 -10 4 C-7.34473796 -0.14220879 -4.76467822 -0.79411304 0 0 Z " fill="#000000" transform="translate(23,11)"/>
<path d="M0 0 C1.0725 0.2475 2.145 0.495 3.25 0.75 C3.58 1.74 3.91 2.73 4.25 3.75 C11.51 3.75 18.77 3.75 26.25 3.75 C26.745 6.72 26.745 6.72 27.25 9.75 C19.66 9.75 12.07 9.75 4.25 9.75 C3.92 10.74 3.59 11.73 3.25 12.75 C0 13.5 0 13.5 -3.75 13.75 C-6.1875 12.1875 -6.1875 12.1875 -7.75 9.75 C-8.35975382 6.09147708 -8.19543026 4.44487121 -6.1875 1.3125 C-3.75 -0.25 -3.75 -0.25 0 0 Z " fill="#000000" transform="translate(13.75,43.25)"/>
<path d="M0 0 C1.65 0 3.3 0 5 0 C5 7.59 5 15.18 5 23 C-1.6 23 -8.2 23 -15 23 C-8.48548813 14.31398417 -8.48548813 14.31398417 -5.25 10.9375 C-2.08067862 7.40437131 -0.870215 4.64114667 0 0 Z " fill="#000000" transform="translate(75,127)"/>
<path d="M0 0 C1.65 0 3.3 0 5 0 C5.00515625 0.58265625 5.0103125 1.1653125 5.015625 1.765625 C5.81141696 10.20101975 10.50923333 14.18899845 16.4453125 19.62890625 C17.28835937 20.41136719 18.13140625 21.19382813 19 22 C19 22.33 19 22.66 19 23 C12.73 23 6.46 23 0 23 C0 15.41 0 7.82 0 0 Z " fill="#000000" transform="translate(85,127)"/>
<path d="M0 0 C1.65 0 3.3 0 5 0 C4.99097656 0.99 4.98195313 1.98 4.97265625 3 C5.02306413 12.08626433 5.02306413 12.08626433 9.4375 19.8125 C10.59521688 20.9073763 11.77889307 21.97630065 13 23 C15 25 15 25 15 28 C10.05 28 5.1 28 0 28 C0 18.76 0 9.52 0 0 Z " fill="#000000" transform="translate(75,95)"/>
<path d="M0 0 C2.64 0 5.28 0 8 0 C8.03738281 0.77085938 8.07476562 1.54171875 8.11328125 2.3359375 C8.21189453 3.84027344 8.21189453 3.84027344 8.3125 5.375 C8.39951172 6.87160156 8.39951172 6.87160156 8.48828125 8.3984375 C8.65714844 9.25695312 8.82601562 10.11546875 9 11 C9.99 11.66 10.98 12.32 12 13 C10.87548273 15.9719385 9.77706209 18.33440687 8 21 C4.5829601 19.53555433 2.29531624 17.94565585 0 15 C-0.2911521 12.26317029 -0.38322418 9.96059961 -0.25 7.25 C-0.23195313 6.55261719 -0.21390625 5.85523437 -0.1953125 5.13671875 C-0.14838554 3.42388461 -0.07664605 1.71176176 0 0 Z " fill="#000000" transform="translate(85,95)"/>
<path d="M0 0 C1.33359073 6.42548263 1.33359073 6.42548263 -0.125 8.9375 C-2.63647631 10.36066991 -4.15503228 10.42674516 -7 10 C-8.8125 8.8125 -8.8125 8.8125 -10 7 C-10.42674516 4.15503228 -10.36066991 2.63647631 -8.9375 0.125 C-5.88430685 -1.64782183 -3.33588292 -0.69235306 0 0 Z " fill="#000000" transform="translate(68,43)"/>
<path d="M0 0 C4.29 0 8.58 0 13 0 C13 3.3 13 6.6 13 10 C10.69 10 8.38 10 6 10 C5.938125 9.278125 5.87625 8.55625 5.8125 7.8125 C4.75543353 4.15342375 2.79449929 2.50788398 0 0 Z " fill="#000000" transform="translate(85,50)"/>
<path d="M0 0 C2.31 0 4.62 0 7 0 C7 3.3 7 6.6 7 10 C2.71 10 -1.58 10 -6 10 C-5.195625 9.278125 -4.39125 8.55625 -3.5625 7.8125 C-0.97707928 4.97484311 -0.31957187 3.72833853 0 0 Z " fill="#000000" transform="translate(91,35)"/>
</svg>
