<?xml version="1.0" encoding="UTF-8"?>
<svg version="1.1" xmlns="http://www.w3.org/2000/svg" width="225" height="225">
<path d="M0 0 C74.25 0 148.5 0 225 0 C225 74.25 225 148.5 225 225 C150.75 225 76.5 225 0 225 C0 150.75 0 76.5 0 0 Z " fill="#010101" transform="translate(0,0)"/>
<path d="M0 0 C1.09859093 -0.0010952 1.09859093 -0.0010952 2.21937561 -0.00221252 C4.62244657 0.00125054 7.0235404 0.0400461 9.42626953 0.0793457 C11.09920188 0.0886785 12.77214795 0.09579241 14.44509888 0.1007843 C18.8348607 0.11981762 23.22378706 0.16888585 27.61322021 0.2243042 C32.09766337 0.27557644 36.58224236 0.2983153 41.06689453 0.32348633 C49.85638199 0.37700928 58.64503162 0.46491421 67.43408203 0.56762695 C67.76408203 9.80762695 68.09408203 19.04762695 68.43408203 28.56762695 C78.00408203 28.89762695 87.57408203 29.22762695 97.43408203 29.56762695 C97.43408203 42.43762695 97.43408203 55.30762695 97.43408203 68.56762695 C60.80408203 68.56762695 24.17408203 68.56762695 -13.56591797 68.56762695 C-13.68966797 58.27575195 -13.81341797 47.98387695 -13.94091797 37.38012695 C-13.99554199 34.136604 -14.05016602 30.89308105 -14.10644531 27.55126953 C-14.12396921 24.97991425 -14.13925847 22.40854234 -14.15185547 19.8371582 C-14.16753571 19.17262131 -14.18321594 18.50808441 -14.19937134 17.82341003 C-14.24346329 15.85552204 -14.24595392 13.8868386 -14.24707031 11.91845703 C-14.26039398 10.81037186 -14.27371765 9.70228668 -14.28744507 8.56062317 C-13.46413417 5.14541339 -12.1760733 3.57037249 -9.34351158 1.49564075 C-6.25110833 -0.11878499 -3.44441208 -0.02899337 0 0 Z " fill="#FAFAFA" transform="translate(70.56591796875,44.432373046875)"/>
<path d="M0 0 C36.63 0 73.26 0 111 0 C111 11.88 111 23.76 111 36 C74.37 36 37.74 36 0 36 C0 24.12 0 12.24 0 0 Z " fill="#FBFBFB" transform="translate(57,118)"/>
<path d="M0 0 C36.63 0 73.26 0 111 0 C111 15 111 15 107 20 C103.54862859 21.7256857 99.56411255 21.16578278 95.7644043 21.17700195 C94.80654022 21.18357315 93.84867615 21.19014435 92.86178589 21.19691467 C89.68259611 21.21667313 86.5034536 21.22831559 83.32421875 21.23828125 C81.6979956 21.24439454 81.6979956 21.24439454 80.03891945 21.25063133 C74.30142023 21.27150235 68.56394501 21.28579995 62.82641602 21.29516602 C56.89444966 21.30623615 50.96285783 21.34064034 45.03102398 21.38033772 C40.47485141 21.40645813 35.91876871 21.41485377 31.36252785 21.41844749 C29.17563152 21.42332482 26.98873951 21.43497122 24.80191612 21.45348549 C21.74223355 21.47778051 18.68352839 21.4769294 15.6237793 21.4699707 C14.26687233 21.48918579 14.26687233 21.48918579 12.8825531 21.50878906 C8.71996818 21.47425528 6.5632287 21.35294587 2.96101379 19.09562683 C-2.68160613 13.06567144 0 11.27540366 0 0 Z " fill="#F8F8F8" transform="translate(57,159)"/>
<path d="M0 0 C0.33 0 0.66 0 1 0 C1 28.71 1 57.42 1 87 C-26.72 87 -54.44 87 -83 87 C-83 86.67 -83 86.34 -83 86 C-81.8236499 85.94054199 -81.8236499 85.94054199 -80.62353516 85.87988281 C-44.37783001 84.43666842 -44.37783001 84.43666842 -14.25 66.1875 C-0.61675775 46.87374015 -0.87298185 22.70979475 0 0 Z " fill="#F7F7F7" transform="translate(224,138)"/>
<path d="M0 0 C0.33 0 0.66 0 1 0 C1.03440186 0.89493164 1.06880371 1.78986328 1.10424805 2.71191406 C1.70185542 38.13877972 1.70185542 38.13877972 17.25 68.875 C35.25870824 84.90002764 61.18102848 84.90237859 84 86 C84 86.33 84 86.66 84 87 C56.28 87 28.56 87 0 87 C0 58.29 0 29.58 0 0 Z " fill="#F7F7F7" transform="translate(0,138)"/>
<path d="M0 0 C29.04 0 58.08 0 88 0 C88 27.72 88 55.44 88 84 C87.67 84 87.34 84 87 84 C86.94054199 82.77821045 86.94054199 82.77821045 86.87988281 81.53173828 C86.02247738 47.38906661 86.02247738 47.38906661 70.5625 17.9375 C69.40418603 16.92397528 68.21706889 15.94216078 67 15 C66.4534375 14.55527344 65.906875 14.11054688 65.34375 13.65234375 C47.70129442 1.000846 20.61958619 1.50791305 0 1 C0 0.67 0 0.34 0 0 Z " fill="#F7F7F7" transform="translate(137,0)"/>
<path d="M0 0 C27.72 0 55.44 0 84 0 C84 0.33 84 0.66 84 1 C82.7939209 1.05160278 82.7939209 1.05160278 81.56347656 1.10424805 C46.23583015 2.42090192 46.23583015 2.42090192 16.2578125 19.4296875 C1.4214104 36.31957086 1.95291642 62.78507123 1 84 C0.67 84 0.34 84 0 84 C0 56.28 0 28.56 0 0 Z " fill="#F8F8F8" transform="translate(0,0)"/>
<path d="M0 0 C15.18 0 30.36 0 46 0 C46 4.95 46 9.9 46 15 C30.82 15 15.64 15 0 15 C0 10.05 0 5.1 0 0 Z " fill="#F0F0F0" transform="translate(76,67)"/>
<path d="M0 0 C1.58669495 -0.00472824 1.58669495 -0.00472824 3.20544434 -0.009552 C4.93196228 -0.00651566 4.93196228 -0.00651566 6.69335938 -0.00341797 C8.45226501 -0.00485306 8.45226501 -0.00485306 10.2467041 -0.00631714 C12.73169 -0.00699917 15.21667766 -0.00514331 17.70166016 -0.00097656 C21.52054825 0.00437134 25.33931872 -0.00092083 29.15820312 -0.00732422 C31.56575547 -0.00666344 33.97330774 -0.00538229 36.38085938 -0.00341797 C38.10737732 -0.00645432 38.10737732 -0.00645432 39.86877441 -0.009552 C40.92657104 -0.00639984 41.98436768 -0.00324768 43.07421875 0 C44.47867249 0.00119339 44.47867249 0.00119339 45.91149902 0.00241089 C48.03710938 0.12939453 48.03710938 0.12939453 49.03710938 1.12939453 C49.13610461 2.67895012 49.16790462 4.23293126 49.16992188 5.78564453 C49.17185547 7.19523437 49.17185547 7.19523437 49.17382812 8.63330078 C49.16996094 9.62201172 49.16609375 10.61072266 49.16210938 11.62939453 C49.16791016 13.11246094 49.16791016 13.11246094 49.17382812 14.62548828 C49.17253906 15.56521484 49.17125 16.50494141 49.16992188 17.47314453 C49.16879395 18.34132813 49.16766602 19.20951172 49.16650391 20.10400391 C49.03710938 22.12939453 49.03710938 22.12939453 48.03710938 23.12939453 C46.38519542 23.22807962 44.7290772 23.2573829 43.07421875 23.25878906 C42.01642212 23.26194122 40.95862549 23.26509338 39.86877441 23.26834106 C38.71776245 23.26631683 37.56675049 23.2642926 36.38085938 23.26220703 C34.62195374 23.26364212 34.62195374 23.26364212 32.82751465 23.2651062 C30.34252875 23.26578823 27.85754109 23.26393237 25.37255859 23.25976562 C21.5536705 23.25441772 17.73490003 23.25970989 13.91601562 23.26611328 C11.50846328 23.2654525 9.10091101 23.26417135 6.69335938 23.26220703 C4.96684143 23.26524338 4.96684143 23.26524338 3.20544434 23.26834106 C2.14764771 23.2651889 1.08985107 23.26203674 0 23.25878906 C-1.40445374 23.25759567 -1.40445374 23.25759567 -2.83728027 23.25637817 C-4.96289062 23.12939453 -4.96289062 23.12939453 -5.96289062 22.12939453 C-6.06188586 20.57983894 -6.09368587 19.02585781 -6.09570312 17.47314453 C-6.09699219 16.53341797 -6.09828125 15.59369141 -6.09960938 14.62548828 C-6.09574219 13.63677734 -6.091875 12.64806641 -6.08789062 11.62939453 C-6.09175781 10.64068359 -6.095625 9.65197266 -6.09960938 8.63330078 C-6.09832031 7.69357422 -6.09703125 6.75384766 -6.09570312 5.78564453 C-6.0945752 4.91746094 -6.09344727 4.04927734 -6.09228516 3.15478516 C-5.8373009 -0.83644011 -3.44249254 0.00292515 0 0 Z M-0.96289062 4.12939453 C-0.96289062 9.07939453 -0.96289062 14.02939453 -0.96289062 19.12939453 C14.21710938 19.12939453 29.39710937 19.12939453 45.03710938 19.12939453 C45.03710938 14.17939453 45.03710938 9.22939453 45.03710938 4.12939453 C29.85710937 4.12939453 14.67710938 4.12939453 -0.96289062 4.12939453 Z " fill="#040404" transform="translate(76.962890625,62.87060546875)"/>
<path d="M0 0 C13.62019264 -0.41273311 13.62019264 -0.41273311 18 3 C19.0625 5.875 19.0625 5.875 19 9 C17.0625 11.875 17.0625 11.875 15 14 C15.3609375 14.48210937 15.721875 14.96421875 16.09375 15.4609375 C16.5578125 16.09257812 17.021875 16.72421875 17.5 17.375 C17.9640625 18.00148437 18.428125 18.62796875 18.90625 19.2734375 C20 21 20 21 20 23 C17.8125 23.5 17.8125 23.5 15 23 C13.765625 21.25390625 13.765625 21.25390625 12.5625 19.0625 C10.62189322 15.43727395 10.62189322 15.43727395 6.6875 14 C5.800625 14 4.91375 14 4 14 C4 16.97 4 19.94 4 23 C2.68 23 1.36 23 0 23 C0 15.41 0 7.82 0 0 Z " fill="#0C0C0C" transform="translate(77,124)"/>
<path d="M0 0 C2 0 2 0 4.125 2 C5.0859007 2.99753327 6.04387708 3.99788636 7 5 C11.63739531 9.74662732 16.35418116 14.28042641 21.43359375 18.5546875 C23 20 23 20 24 22 C16.08 22 8.16 22 0 22 C0 14.74 0 7.48 0 0 Z " fill="#F2F2F2" transform="translate(142,47)"/>
<path d="M0 0 C1.40897804 0.00333092 1.40897804 0.00333092 2.84642029 0.00672913 C3.90744461 0.00680466 4.96846893 0.00688019 6.06164551 0.00695801 C7.21579453 0.01211929 8.36994354 0.01728058 9.55906677 0.02259827 C10.73404221 0.02401321 11.90901764 0.02542816 13.11959839 0.02688599 C16.88981116 0.0325046 20.65996556 0.04506026 24.43016052 0.05775452 C26.97898779 0.06276712 29.52781599 0.06733044 32.0766449 0.07142639 C38.34033685 0.08248007 44.60399452 0.0992363 50.86766052 0.12025452 C51.43016052 2.05775452 51.43016052 2.05775452 51.86766052 4.12025452 C50.86766052 5.12025452 50.86766052 5.12025452 48.73532104 5.24050903 C47.79600235 5.23828842 46.85668365 5.23606781 45.88890076 5.23377991 C44.82787643 5.23370438 43.76685211 5.23362885 42.67367554 5.23355103 C40.94245201 5.2258091 40.94245201 5.2258091 39.17625427 5.21791077 C38.00127884 5.21649582 36.82630341 5.21508087 35.61572266 5.21362305 C31.84550988 5.20800444 28.07535549 5.19544878 24.30516052 5.18275452 C21.75633325 5.17774191 19.20750506 5.17317859 16.65867615 5.16908264 C10.3949842 5.15802896 4.13132653 5.14127273 -2.13233948 5.12025452 C-2.69483948 3.18275452 -2.69483948 3.18275452 -3.13233948 1.12025452 C-2.13233948 0.12025452 -2.13233948 0.12025452 0 0 Z " fill="#121212" transform="translate(74.13233947753906,93.87974548339844)"/>
<path d="M0 0 C2.1875 1.1875 2.1875 1.1875 4.1875 4.1875 C4.1875 5.1775 4.1875 6.1675 4.1875 7.1875 C2.8675 7.5175 1.5475 7.8475 0.1875 8.1875 C-0.1425 7.1975 -0.4725 6.2075 -0.8125 5.1875 C-3.64133747 3.77308126 -5.68626745 3.86849668 -8.8125 4.1875 C-11.38521448 6.41718588 -11.76561909 7.81245274 -12.1875 11.1875 C-11.76561909 14.56254726 -11.38521448 15.95781412 -8.8125 18.1875 C-5.68626745 18.50650332 -3.64133747 18.60191874 -0.8125 17.1875 C-0.4825 16.1975 -0.1525 15.2075 0.1875 14.1875 C-1.7925 14.1875 -3.7725 14.1875 -5.8125 14.1875 C-5.8125 12.8675 -5.8125 11.5475 -5.8125 10.1875 C-2.5125 10.1875 0.7875 10.1875 4.1875 10.1875 C4.61366781 16.75048428 4.61366781 16.75048428 4.1875 20.1875 C1.36317307 23.18834736 -0.67022027 23.17169114 -4.75 23.625 C-9.00984994 23.45589443 -11.55913122 21.97610181 -14.8125 19.1875 C-17.35731052 15.0073645 -17.64678051 10.96189737 -16.8125 6.1875 C-12.90756686 -0.80944339 -7.56026596 -2.18407683 0 0 Z " fill="#0A0A0A" transform="translate(145.8125,124.8125)"/>
<path d="M0 0 C1.65 0 3.3 0 5 0 C6.3417678 3.26743656 7.67194359 6.53946908 9 9.8125 C9.3815625 10.74126953 9.763125 11.67003906 10.15625 12.62695312 C10.5171875 13.51962891 10.878125 14.41230469 11.25 15.33203125 C11.58515625 16.15421143 11.9203125 16.9763916 12.265625 17.82348633 C13 20 13 20 13 23 C11.35 22.67 9.7 22.34 8 22 C7.67 20.35 7.34 18.7 7 17 C4.03 17 1.06 17 -2 17 C-2.66 18.98 -3.32 20.96 -4 23 C-5.32 23 -6.64 23 -8 23 C-5.81659819 15.13620323 -3.00714974 7.58324716 0 0 Z " fill="#0C0C0C" transform="translate(110,124)"/>
<path d="M0 0 C2.9375 0.4375 2.9375 0.4375 5.9375 2.4375 C5.9375 3.4275 5.9375 4.4175 5.9375 5.4375 C7.2575 5.1075 8.5775 4.7775 9.9375 4.4375 C9.9375 5.4275 9.9375 6.4175 9.9375 7.4375 C6.6375 7.4375 3.3375 7.4375 -0.0625 7.4375 C-0.0625 8.7575 -0.0625 10.0775 -0.0625 11.4375 C1.9175 11.4375 3.8975 11.4375 5.9375 11.4375 C5.5625 13.375 5.5625 13.375 4.9375 15.4375 C2.06279507 16.87485246 0.11855412 16.81922649 -3.0625 16.4375 C-5.93045763 13.87143265 -6.92921285 12.23722291 -7.5625 8.4375 C-6.74908635 3.55701807 -5.06413036 0.72344719 0 0 Z " fill="#F0F0F0" transform="translate(140.0625,127.5625)"/>
<path d="M0 0 C2.97 0 5.94 0 9 0 C9.38218767 1.65614657 9.71395102 3.32457024 10 5 C9 6 9 6 6.93359375 6.09765625 C6.10988281 6.08605469 5.28617187 6.07445312 4.4375 6.0625 C3.61121094 6.05347656 2.78492187 6.04445312 1.93359375 6.03515625 C1.29550781 6.02355469 0.65742187 6.01195312 0 6 C0 4.02 0 2.04 0 0 Z " fill="#E5E5E5" transform="translate(81,128)"/>
<path d="M0 0 C3 3.75 3 3.75 3 6 C1.35 6 -0.3 6 -2 6 C-1.34 4.02 -0.68 2.04 0 0 Z " fill="#DCDCDC" transform="translate(112,131)"/>
</svg>
