<?xml version="1.0" encoding="UTF-8"?>
<svg version="1.1" xmlns="http://www.w3.org/2000/svg" width="160" height="160">
<path d="M0 0 C1.48831242 0.00667405 2.97660807 0.01863442 4.46484375 0.03515625 C5.22345703 0.03966797 5.98207031 0.04417969 6.76367188 0.04882812 C8.64326246 0.06064945 10.52281274 0.07858547 12.40234375 0.09765625 C12.78453142 1.75380282 13.11629477 3.42222649 13.40234375 5.09765625 C12.40234375 6.09765625 12.40234375 6.09765625 9.6796875 6.1953125 C8.02646484 6.17791016 8.02646484 6.17791016 6.33984375 6.16015625 C4.68275391 6.14662109 4.68275391 6.14662109 2.9921875 6.1328125 C2.13753906 6.12121094 1.28289063 6.10960937 0.40234375 6.09765625 C0.40234375 8.40765625 0.40234375 10.71765625 0.40234375 13.09765625 C3.37234375 13.09765625 6.34234375 13.09765625 9.40234375 13.09765625 C9.89734375 15.07765625 9.89734375 15.07765625 10.40234375 17.09765625 C9.40234375 18.09765625 9.40234375 18.09765625 7.3359375 18.1953125 C3.86914062 18.14648438 3.86914062 18.14648438 0.40234375 18.09765625 C0.40234375 23.70765625 0.40234375 29.31765625 0.40234375 35.09765625 C-1.57765625 35.59265625 -1.57765625 35.59265625 -3.59765625 36.09765625 C-4.59765625 35.09765625 -4.59765625 35.09765625 -4.6953125 31.28125 C-4.68863714 29.69918943 -4.676675 28.11714466 -4.66015625 26.53515625 C-4.65564453 25.72884766 -4.65113281 24.92253906 -4.64648438 24.09179688 C-4.63466143 22.09371869 -4.61672539 20.09567842 -4.59765625 18.09765625 C-8.7789475 18.19154923 -12.95969661 18.29772026 -17.14038086 18.41503906 C-18.56119355 18.45320774 -19.98209888 18.48808138 -21.40307617 18.51953125 C-23.4513448 18.5654469 -25.49898233 18.6233943 -27.546875 18.68359375 C-28.77752686 18.71501465 -30.00817871 18.74643555 -31.27612305 18.77880859 C-34.47962213 19.08632567 -36.75053563 19.62282746 -39.59765625 21.09765625 C-41.18822274 24.27878923 -40.77773422 27.72359887 -40.80297852 31.21923828 C-40.81287811 32.0583374 -40.82277771 32.89743652 -40.83297729 33.76196289 C-40.86463417 36.54310254 -40.88936625 39.32425929 -40.9140625 42.10546875 C-40.93462841 44.03075613 -40.95562479 45.95603896 -40.97703552 47.88131714 C-41.03229366 52.95461343 -41.08168642 58.02795072 -41.12988281 63.10131836 C-41.18007054 68.27591613 -41.23577083 73.45045419 -41.29101562 78.625 C-41.39864295 88.7825011 -41.50007775 98.94005399 -41.59765625 109.09765625 C-40.60765625 108.60265625 -40.60765625 108.60265625 -39.59765625 108.09765625 C-37.15624065 108.00485707 -34.74365566 107.97181697 -32.30224609 107.98413086 C-31.17527061 107.98391182 -31.17527061 107.98391182 -30.02552795 107.98368835 C-27.53652075 107.98438629 -25.04758792 107.99217311 -22.55859375 108 C-20.8350936 108.0018646 -19.11159291 108.00328831 -17.38809204 108.00428772 C-12.84739728 108.00810956 -8.3067344 108.01793703 -3.76605225 108.0289917 C0.8655962 108.03921296 5.49724978 108.04378688 10.12890625 108.04882812 C19.22006611 108.05955958 28.31120228 108.07663203 37.40234375 108.09765625 C37.40234375 106.77765625 37.40234375 105.45765625 37.40234375 104.09765625 C36.68046875 103.89140625 35.95859375 103.68515625 35.21484375 103.47265625 C30.50857675 101.17181461 27.30462266 96.94292271 25.40234375 92.09765625 C25.13671875 88.93359375 25.13671875 88.93359375 25.15234375 85.47265625 C25.14460938 83.75175781 25.14460938 83.75175781 25.13671875 81.99609375 C25.40234375 79.09765625 25.40234375 79.09765625 27.40234375 77.09765625 C30.94482328 77.18726366 32.25002014 77.95643706 34.8671875 80.3828125 C36.5157687 82.23453641 38.16160517 84.08870758 39.8046875 85.9453125 C42.26997063 88.39974162 42.26997063 88.39974162 45.71875 88.40625 C47.04712891 88.25349609 47.04712891 88.25349609 48.40234375 88.09765625 C48.91309691 85.85351932 48.91309691 85.85351932 48.40234375 83.09765625 C45.9241592 80.36110003 43.35168908 77.98259978 40.58007812 75.55859375 C38.9296875 74.03515625 38.9296875 74.03515625 36.40234375 71.09765625 C36.53125 68.22265625 36.53125 68.22265625 37.40234375 66.09765625 C43.08255859 64.2042513 49.14336044 64.17633718 54.65234375 66.66015625 C60.02739931 69.75026916 63.48432427 73.80260756 65.77734375 79.53515625 C66.40234375 83.09765625 66.40234375 83.09765625 66.01977539 86.85205078 C66.00359566 90.47433305 66.82838374 92.12861179 69.23217773 94.81982422 C70.51743835 96.09710797 71.82432169 97.3528854 73.1484375 98.58984375 C73.83414322 99.26185822 74.51984894 99.93387268 75.22633362 100.62625122 C77.41270628 102.76138624 79.62492006 104.8671917 81.83984375 106.97265625 C84.04484625 109.10539901 86.24431377 111.24371221 88.44264221 113.3833313 C89.81078602 114.71085227 91.18398326 116.03318846 92.56260681 117.349823 C93.18317459 117.94449371 93.80374237 118.53916443 94.44311523 119.15185547 C94.99160629 119.67399628 95.54009735 120.19613708 96.10520935 120.73410034 C98.7326267 123.49605813 98.80335389 126.2610377 98.7421875 129.9921875 C98.10673458 133.92907396 96.40061504 135.48214299 93.40234375 138.09765625 C89.48058051 139.30983762 87.39180977 139.49609034 83.57397461 137.95874023 C79.87285338 135.78695614 77.11304613 133.2759843 74.09375 130.2578125 C73.23728127 129.41276405 73.23728127 129.41276405 72.36351013 128.55064392 C71.16729471 127.36517795 69.97496765 126.17577668 68.78637695 124.98266602 C66.95973305 123.15504281 65.11271216 121.34984987 63.26367188 119.54492188 C62.10156775 118.38801996 60.94071455 117.22985982 59.78125 116.0703125 C59.22619278 115.53165054 58.67113556 114.99298859 58.09925842 114.43800354 C56.58032227 112.89086914 56.58032227 112.89086914 54.40234375 110.09765625 C54.56616211 107.72436523 54.56616211 107.72436523 55.40234375 106.09765625 C57.03344727 105.24829102 57.03344727 105.24829102 59.40234375 105.09765625 C61.58487644 106.89427564 63.39540584 108.62941829 65.3046875 110.6875 C65.86426651 111.26601212 66.42384552 111.84452423 67.00038147 112.44056702 C69.3982992 114.92037128 71.7658801 117.42843478 74.13647461 119.93432617 C75.86980767 121.7580237 77.61789753 123.5666246 79.3671875 125.375 C79.89755112 125.94685532 80.42791473 126.51871063 80.97434998 127.1078949 C83.38653521 129.59862096 84.7703966 131.01909854 88.27954102 131.45532227 C88.98006592 131.33729248 89.68059082 131.2192627 90.40234375 131.09765625 C91.45135002 128.93982593 91.45135002 128.93982593 91.40234375 126.09765625 C89.46786946 123.62684257 87.63046973 121.62675589 85.375 119.484375 C84.75209579 118.86996048 84.12919159 118.25554596 83.4874115 117.62251282 C81.49351464 115.66221807 79.47978527 113.72379059 77.46484375 111.78515625 C76.10996955 110.46037239 74.75643584 109.13421609 73.40429688 107.80664062 C70.08566079 104.55417951 66.74908442 101.32118076 63.40234375 98.09765625 C62.85457275 98.5148291 62.30680176 98.93200195 61.74243164 99.36181641 C61.0230542 99.90628418 60.30367676 100.45075195 59.5625 101.01171875 C58.49334351 101.82310303 58.49334351 101.82310303 57.40258789 102.65087891 C52.68663114 106.06193221 49.12687659 106.1644536 43.40234375 106.09765625 C43.40758057 106.88003662 43.41281738 107.66241699 43.41821289 108.46850586 C43.43891481 111.99071458 43.45198213 115.51291055 43.46484375 119.03515625 C43.47322266 120.26685547 43.48160156 121.49855469 43.49023438 122.76757812 C43.49345703 123.93740234 43.49667969 125.10722656 43.5 126.3125 C43.50523682 127.396521 43.51047363 128.48054199 43.51586914 129.59741211 C43.40234375 132.09765625 43.40234375 132.09765625 42.40234375 133.09765625 C39.87314196 133.20867037 37.37098909 133.25504441 34.84082031 133.25878906 C34.04891296 133.26375397 33.25700562 133.26871887 32.44110107 133.27383423 C29.8083816 133.2884972 27.17572243 133.29526572 24.54296875 133.30078125 C22.71791583 133.3065306 20.89286293 133.31228836 19.06781006 133.3180542 C15.23433144 133.32857684 11.40087386 133.3344108 7.56738281 133.33789062 C2.65666865 133.34336907 -2.25376735 133.36737781 -7.16439438 133.39586258 C-10.9373658 133.41449627 -14.71027045 133.41969501 -18.483284 133.4212265 C-20.29337327 133.4242534 -22.10346136 133.43228318 -23.91350555 133.44541168 C-26.44873594 133.46248278 -28.98329 133.46058913 -31.51855469 133.45410156 C-32.26576782 133.46331635 -33.01298096 133.47253113 -33.78283691 133.48202515 C-38.23515468 133.44636792 -41.16671908 133.01010061 -44.59765625 130.09765625 C-48.16068998 124.98559638 -48.02529946 120.1445317 -47.98583984 114.1484375 C-47.9910968 113.1623349 -47.99635376 112.1762323 -48.00177002 111.1602478 C-48.01494251 107.91005478 -48.00624145 104.66035401 -47.99609375 101.41015625 C-47.99811527 99.14623928 -48.00102736 96.88232295 -48.00479126 94.6184082 C-48.0092109 89.87737824 -48.00279499 85.13651802 -47.98876953 80.39550781 C-47.97167806 74.32254016 -47.98152114 68.24997028 -47.99948692 62.17701721 C-48.01033437 57.50326549 -48.00687396 52.82960785 -47.99910355 48.15585327 C-47.99710421 45.91677808 -47.99955144 43.67769432 -48.00654221 41.43862915 C-48.01417229 38.30781466 -48.0025301 35.17764179 -47.98583984 32.046875 C-47.99191254 31.1240976 -47.99798523 30.20132019 -48.00424194 29.25057983 C-47.95361784 24.11711529 -47.46696978 20.537586 -44.59765625 16.09765625 C-40.55382189 12.65112926 -36.5425585 12.69816326 -31.453125 12.8046875 C-30.68333817 12.80893234 -29.91355133 12.81317719 -29.12043762 12.81755066 C-26.67497979 12.83427028 -24.23036268 12.87190855 -21.78515625 12.91015625 C-20.12175674 12.92521184 -18.45834424 12.93889871 -16.79492188 12.95117188 C-12.72884543 12.9841516 -8.66339312 13.03588619 -4.59765625 13.09765625 C-4.60925781 12.24300781 -4.62085938 11.38835938 -4.6328125 10.5078125 C-4.64183594 9.40308594 -4.65085938 8.29835938 -4.66015625 7.16015625 C-4.67175781 6.05800781 -4.68335938 4.95585937 -4.6953125 3.8203125 C-4.54700562 -0.3144834 -4.27940934 0.11616203 0 0 Z M46.40234375 71.09765625 C47.35964291 72.22353639 48.3182227 73.34832775 49.27734375 74.47265625 C49.81101562 75.09914063 50.3446875 75.725625 50.89453125 76.37109375 C52.01666382 77.65602276 53.1960635 78.891376 54.40234375 80.09765625 C54.4140625 82.62890625 54.4140625 82.62890625 54.08984375 85.59765625 C53.99058594 86.57734375 53.89132813 87.55703125 53.7890625 88.56640625 C53.40234375 91.09765625 53.40234375 91.09765625 52.40234375 93.09765625 C48.76523138 94.5358817 45.3128011 95.21205793 41.40234375 95.09765625 C38.16056718 93.23779084 35.91019241 90.83177697 33.40234375 88.09765625 C32.74234375 87.76765625 32.08234375 87.43765625 31.40234375 87.09765625 C31.83699511 92.02370498 33.9986135 94.61656849 37.40234375 98.09765625 C41.3627854 100.39054352 44.88514864 100.63359465 49.40234375 100.09765625 C53.72819653 98.24144318 56.70734481 96.09671723 59.40234375 92.22265625 C60.81960596 87.79371185 61.38223529 84.36731956 59.48828125 79.98046875 C56.89258833 75.40869993 54.51263556 72.87514905 49.40234375 71.09765625 C48.41234375 71.09765625 47.42234375 71.09765625 46.40234375 71.09765625 Z M-40.59765625 116.09765625 C-41.92858785 119.49735436 -41.92858785 119.49735436 -41.59765625 123.09765625 C-39.42712126 126.0433823 -38.07582802 126.93826566 -34.59765625 128.09765625 C-32.2824447 128.18763688 -29.96466099 128.21522519 -27.64770508 128.21118164 C-26.94500992 128.21132767 -26.24231476 128.21147369 -25.51832581 128.21162415 C-23.19708157 128.21092782 -20.87591771 128.20314851 -18.5546875 128.1953125 C-16.94471785 128.19344733 -15.33474764 128.19202389 -13.72477722 128.19102478 C-9.48823478 128.18720743 -5.25172665 128.1773838 -1.01519775 128.1663208 C3.30822282 128.15608989 7.63164894 128.15152356 11.95507812 128.14648438 C20.43751749 128.13576084 28.9199224 128.11817035 37.40234375 128.09765625 C37.40234375 123.14765625 37.40234375 118.19765625 37.40234375 113.09765625 C28.11834271 113.02980601 18.83450709 112.97479728 9.55031395 112.94221973 C5.23901512 112.92658201 0.92789513 112.90537849 -3.38330078 112.87133789 C-7.5459811 112.83867666 -11.7084897 112.82078899 -15.8712883 112.81302452 C-17.45727617 112.80749313 -19.04325494 112.79669159 -20.62916946 112.78046608 C-22.85536052 112.75860134 -25.08084728 112.75569302 -27.30712891 112.75708008 C-28.5728775 112.75041824 -29.8386261 112.74375641 -31.14273071 112.7368927 C-34.97236895 113.13678377 -37.37291828 114.00893674 -40.59765625 116.09765625 Z " fill="#000000" transform="translate(54.59765625,16.90234375)"/>
<path d="M0 0 C1.07507813 -0.00128906 2.15015625 -0.00257813 3.2578125 -0.00390625 C4.38960937 -0.00003906 5.52140625 0.00382813 6.6875 0.0078125 C7.81929687 0.00394531 8.95109375 0.00007812 10.1171875 -0.00390625 C11.19226563 -0.00261719 12.26734375 -0.00132812 13.375 0 C14.36886719 0.00112793 15.36273438 0.00225586 16.38671875 0.00341797 C18.6875 0.1328125 18.6875 0.1328125 19.6875 1.1328125 C19.91942865 2.64750698 20.09965238 4.17035812 20.25 5.6953125 C20.33378906 6.52160156 20.41757813 7.34789062 20.50390625 8.19921875 C20.56449219 8.83730469 20.62507813 9.47539062 20.6875 10.1328125 C21.574375 9.8234375 22.46125 9.5140625 23.375 9.1953125 C26.15932872 8.30222593 28.8226798 7.6745417 31.6875 7.1328125 C32.72627263 8.6834441 33.74292555 10.24890931 34.75 11.8203125 C35.31847656 12.69042969 35.88695312 13.56054688 36.47265625 14.45703125 C37.88192012 17.56103687 37.69522958 18.9368701 36.6875 22.1328125 C35.3675 22.1328125 34.0475 22.1328125 32.6875 22.1328125 C29.6875 18.06138393 29.6875 18.06138393 29.6875 15.1328125 C28.800625 15.6484375 27.91375 16.1640625 27 16.6953125 C23.38663838 18.26337509 22.31096193 18.43354242 18.6875 17.1328125 C17.759375 16.8028125 16.83125 16.4728125 15.875 16.1328125 C13.6875 14.1328125 13.6875 14.1328125 13.375 11.93359375 C13.375 9.66427467 13.52348664 7.39619685 13.6875 5.1328125 C9.0675 5.1328125 4.4475 5.1328125 -0.3125 5.1328125 C-0.18875 6.5353125 -0.065 7.9378125 0.0625 9.3828125 C0.06640625 11.859375 0.06640625 11.859375 -0.3125 14.1328125 C-3 16.7578125 -3 16.7578125 -6.3125 18.1328125 C-9.92887015 17.9564042 -12.99999868 16.55245592 -16.3125 15.1328125 C-16.745625 16.2465625 -16.745625 16.2465625 -17.1875 17.3828125 C-18.3125 20.1328125 -18.3125 20.1328125 -19.4375 22.2578125 C-20.52394273 24.24105104 -20.52394273 24.24105104 -20.3125 27.1328125 C-19.075 27.65875 -19.075 27.65875 -17.8125 28.1953125 C-15.3125 30.1328125 -15.3125 30.1328125 -14.8046875 32.44140625 C-14.68668123 35.15161685 -14.73211089 37.48088071 -15.3125 40.1328125 C-17.8125 42.2578125 -17.8125 42.2578125 -20.3125 43.1328125 C-19.74361163 47.1150311 -18.42248585 49.73848743 -16.3125 53.1328125 C-16.3125 53.7928125 -16.3125 54.4528125 -16.3125 55.1328125 C-15.425625 54.6171875 -14.53875 54.1015625 -13.625 53.5703125 C-10.01163838 52.00224991 -8.93596193 51.83208258 -5.3125 53.1328125 C-4.384375 53.4628125 -3.45625 53.7928125 -2.5 54.1328125 C-0.3125 56.1328125 -0.3125 56.1328125 0 58.33203125 C0 60.60135033 -0.14848664 62.86942815 -0.3125 65.1328125 C4.3075 65.1328125 8.9275 65.1328125 13.6875 65.1328125 C13.56375 63.7303125 13.44 62.3278125 13.3125 60.8828125 C13.30859375 58.40625 13.30859375 58.40625 13.6875 56.1328125 C16.375 53.5078125 16.375 53.5078125 19.6875 52.1328125 C23.30387015 52.3092208 26.37499868 53.71316908 29.6875 55.1328125 C30.120625 54.0190625 30.120625 54.0190625 30.5625 52.8828125 C31.6875 50.1328125 31.6875 50.1328125 32.8125 48.0078125 C33.89894273 46.02457396 33.89894273 46.02457396 33.6875 43.1328125 C32.8625 42.7821875 32.0375 42.4315625 31.1875 42.0703125 C28.6875 40.1328125 28.6875 40.1328125 28.00390625 37.9296875 C27.71632272 34.97421369 27.76229924 32.96541768 28.6875 30.1328125 C31.64726421 27.28836378 34.79669607 25.4356423 38.6875 24.1328125 C41.015625 24.48828125 41.015625 24.48828125 42.6875 25.1328125 C42.5625 27.3828125 42.5625 27.3828125 41.6875 30.1328125 C39.73152816 31.52993524 37.73313599 32.87061157 35.6875 34.1328125 C35.6875 34.7928125 35.6875 35.4528125 35.6875 36.1328125 C37.24605981 37.48993416 37.24605981 37.48993416 39.1875 38.7578125 C40.16203125 39.42683594 40.16203125 39.42683594 41.15625 40.109375 C41.6615625 40.44710937 42.166875 40.78484375 42.6875 41.1328125 C42.25543027 46.96115736 39.74752625 50.75744933 36.625 55.5078125 C36.15255859 56.24386719 35.68011719 56.97992188 35.19335938 57.73828125 C34.03367537 59.54223415 32.86179493 61.3383364 31.6875 63.1328125 C27.88838882 62.41441158 24.34091173 61.40725845 20.6875 60.1328125 C20.59662109 61.08994141 20.59662109 61.08994141 20.50390625 62.06640625 C20.42011719 62.89269531 20.33632812 63.71898437 20.25 64.5703125 C20.16878906 65.39402344 20.08757812 66.21773438 20.00390625 67.06640625 C19.6875 69.1328125 19.6875 69.1328125 18.6875 70.1328125 C16.91890807 70.23227703 15.14638549 70.26361467 13.375 70.265625 C12.29992187 70.26691406 11.22484375 70.26820312 10.1171875 70.26953125 C8.98539063 70.26566406 7.85359375 70.26179688 6.6875 70.2578125 C5.55570313 70.26167969 4.42390625 70.26554687 3.2578125 70.26953125 C2.18273437 70.26824219 1.10765625 70.26695313 0 70.265625 C-1.49080078 70.26393311 -1.49080078 70.26393311 -3.01171875 70.26220703 C-5.3125 70.1328125 -5.3125 70.1328125 -6.3125 69.1328125 C-6.54442865 67.61811802 -6.72465238 66.09526688 -6.875 64.5703125 C-6.95878906 63.74402344 -7.04257813 62.91773438 -7.12890625 62.06640625 C-7.18949219 61.42832031 -7.25007813 60.79023437 -7.3125 60.1328125 C-8.199375 60.4421875 -9.08625 60.7515625 -10 61.0703125 C-12.78432872 61.96339907 -15.4476798 62.5910833 -18.3125 63.1328125 C-19.58368733 61.07052996 -20.85445965 59.00799359 -22.125 56.9453125 C-22.48142578 56.36716797 -22.83785156 55.78902344 -23.20507812 55.19335938 C-24.24305175 53.50784257 -25.27781853 51.82035225 -26.3125 50.1328125 C-26.89 49.2253125 -27.4675 48.3178125 -28.0625 47.3828125 C-29.51648796 44.76563418 -29.56523992 43.08144488 -29.3125 40.1328125 C-27.0025 38.8128125 -24.6925 37.4928125 -22.3125 36.1328125 C-22.3125 35.4728125 -22.3125 34.8128125 -22.3125 34.1328125 C-23.87105981 32.77569084 -23.87105981 32.77569084 -25.8125 31.5078125 C-26.4621875 31.06179687 -27.111875 30.61578125 -27.78125 30.15625 C-28.2865625 29.81851563 -28.791875 29.48078125 -29.3125 29.1328125 C-28.88043027 23.30446764 -26.37252625 19.50817567 -23.25 14.7578125 C-22.54133789 13.65373047 -22.54133789 13.65373047 -21.81835938 12.52734375 C-20.65867537 10.72339085 -19.48679493 8.9272886 -18.3125 7.1328125 C-14.51338882 7.85121342 -10.96591173 8.85836655 -7.3125 10.1328125 C-7.22162109 9.17568359 -7.22162109 9.17568359 -7.12890625 8.19921875 C-7.04511719 7.37292969 -6.96132812 6.54664063 -6.875 5.6953125 C-6.79378906 4.87160156 -6.71257812 4.04789063 -6.62890625 3.19921875 C-6.00397485 -0.88212334 -3.65697024 0.00415026 0 0 Z " fill="#000000" transform="translate(98.3125,4.8671875)"/>
<path d="M0 0 C1.1859375 0.00257812 2.371875 0.00515625 3.59375 0.0078125 C4.7796875 0.00523438 5.965625 0.00265625 7.1875 0 C10.09375 0.1328125 10.09375 0.1328125 11.09375 1.1328125 C11.13455783 3.13239614 11.13629356 5.13326504 11.09375 7.1328125 C15.15654475 7.98316489 18.06715604 8.05886052 22.09375 7.1328125 C23.10798834 8.51833452 24.10462002 9.91675538 25.09375 11.3203125 C25.650625 12.09761719 26.2075 12.87492187 26.78125 13.67578125 C28.27147265 16.46551353 28.5962433 18.01840093 28.09375 21.1328125 C27.10375 21.7928125 26.11375 22.4528125 25.09375 23.1328125 C24.59375 25.6328125 24.59375 25.6328125 25.09375 28.1328125 C26.08375 28.7928125 27.07375 29.4528125 28.09375 30.1328125 C27.62786505 35.83990314 26.15617216 39.29220973 23.09375 44.1328125 C20.04988276 44.21507918 18.02199652 44.10889467 15.09375 43.1328125 C12.95119207 43.52214106 12.95119207 43.52214106 11.09375 44.1328125 C11.114375 45.1021875 11.135 46.0715625 11.15625 47.0703125 C11.09375 50.1328125 11.09375 50.1328125 10.09375 51.1328125 C7.92894203 51.2317419 5.76081215 51.2625235 3.59375 51.2578125 C2.4078125 51.26039062 1.221875 51.26296875 0 51.265625 C-2.90625 51.1328125 -2.90625 51.1328125 -3.90625 50.1328125 C-3.94705783 48.13322886 -3.94879356 46.13235996 -3.90625 44.1328125 C-7.92429691 43.29182594 -10.92428543 43.07876305 -14.90625 44.1328125 C-15.23625 42.4828125 -15.56625 40.8328125 -15.90625 39.1328125 C-10.57291667 35.1328125 -10.57291667 35.1328125 -7.96875 35.1328125 C-4.84806833 36.64587028 -1.88590296 38.35648093 1.09375 40.1328125 C1.09375 41.7828125 1.09375 43.4328125 1.09375 45.1328125 C2.74375 45.1328125 4.39375 45.1328125 6.09375 45.1328125 C5.92875 44.4109375 5.76375 43.6890625 5.59375 42.9453125 C6.09375 40.1328125 6.09375 40.1328125 7.69921875 38.65234375 C10.99339599 36.44592485 13.06245736 35.06835671 17.09375 35.3203125 C17.75375 35.5884375 18.41375 35.8565625 19.09375 36.1328125 C19.75375 35.1428125 20.41375 34.1528125 21.09375 33.1328125 C20.10375 32.8028125 19.11375 32.4728125 18.09375 32.1328125 C18.09375 27.8428125 18.09375 23.5528125 18.09375 19.1328125 C19.08375 18.8028125 20.07375 18.4728125 21.09375 18.1328125 C20.59875 17.1428125 20.59875 17.1428125 20.09375 16.1328125 C19.26875 16.2359375 18.44375 16.3390625 17.59375 16.4453125 C12.910391 16.02715545 9.55723241 14.32059482 6.09375 11.1328125 C5.59375 8.3203125 5.59375 8.3203125 6.09375 6.1328125 C4.44375 6.1328125 2.79375 6.1328125 1.09375 6.1328125 C1.34125 7.215625 1.34125 7.215625 1.59375 8.3203125 C1.09375 11.1328125 1.09375 11.1328125 -0.51171875 12.61328125 C-3.80589599 14.81970015 -5.87495736 16.19726829 -9.90625 15.9453125 C-10.56625 15.6771875 -11.22625 15.4090625 -11.90625 15.1328125 C-12.89625 16.6178125 -12.89625 16.6178125 -13.90625 18.1328125 C-12.91625 18.4628125 -11.92625 18.7928125 -10.90625 19.1328125 C-10.77128749 21.23522853 -10.67427693 23.3401086 -10.59375 25.4453125 C-10.50673828 27.20294922 -10.50673828 27.20294922 -10.41796875 28.99609375 C-10.90625 32.1328125 -10.90625 32.1328125 -13.25 34.0390625 C-16.04016515 35.18795403 -17.92183813 35.38861923 -20.90625 35.1328125 C-21.09375 32.7578125 -21.09375 32.7578125 -20.90625 30.1328125 C-19.91625 29.4728125 -18.92625 28.8128125 -17.90625 28.1328125 C-17.40625 25.6328125 -17.40625 25.6328125 -17.90625 23.1328125 C-18.89625 22.4728125 -19.88625 21.8128125 -20.90625 21.1328125 C-20.44036505 15.42572186 -18.96867216 11.97341527 -15.90625 7.1328125 C-11.90625 7.1328125 -7.90625 7.1328125 -3.90625 7.1328125 C-3.926875 6.1634375 -3.9475 5.1940625 -3.96875 4.1953125 C-3.88675629 0.17762058 -3.88675629 0.17762058 0 0 Z " fill="#000000" transform="translate(48.90625,56.8671875)"/>
<path d="M0 0 C4.36045847 2.22136563 7.13277421 4.43567029 9 9 C9.53635899 13.82723092 9.52017901 15.97890786 7.3125 20.3125 C3.73770791 24.4669881 1.56223989 25.82641779 -3.9375 26.4375 C-8.2150513 26.25994127 -10.73416458 24.81013746 -14 22 C-16.88516342 18.5378039 -17.53917865 15.51203116 -17.3515625 10.9921875 C-16.57919747 6.61545234 -14.06326048 3.8860504 -10.75 1.125 C-7.10164042 -0.36751074 -3.84747819 -0.67896674 0 0 Z M-8.8125 8.125 C-11.30339948 10.81259963 -11.30339948 10.81259963 -11.0625 14.125 C-10.18706667 17.01645649 -10.18706667 17.01645649 -8.3125 18.9375 C-5.10056066 20.41325591 -3.33525198 20.06444212 0 19 C2.0785608 17.42304368 2.0785608 17.42304368 3 15 C2.92777005 11.46073241 2.67194991 9.6951206 0.1875 7.125 C-3.60255582 5.17582844 -5.48904611 5.61394595 -8.8125 8.125 Z " fill="#000000" transform="translate(109,27)"/>
<path d="M0 0 C1.65 0.33 3.3 0.66 5 1 C5 19.48 5 37.96 5 57 C2.525 57.495 2.525 57.495 0 58 C-1.70565618 56.29434382 -1.12752055 54.09266505 -1.12939453 51.76171875 C-1.13254669 50.64385986 -1.13569885 49.52600098 -1.13894653 48.37426758 C-1.1369223 47.15763428 -1.13489807 45.94100098 -1.1328125 44.6875 C-1.13376923 43.44830811 -1.13472595 42.20911621 -1.13571167 40.93237305 C-1.13639374 38.30611719 -1.13503538 35.67995367 -1.13037109 33.05371094 C-1.12467381 29.68071286 -1.12795302 26.30779435 -1.13394356 22.93479919 C-1.1384177 19.72736323 -1.13528882 16.519937 -1.1328125 13.3125 C-1.13483673 12.0958667 -1.13686096 10.8792334 -1.13894653 9.62573242 C-1.13579437 8.50787354 -1.13264221 7.39001465 -1.12939453 6.23828125 C-1.12859894 5.24868408 -1.12780334 4.25908691 -1.12698364 3.23950195 C-1 1 -1 1 0 0 Z " fill="#000000" transform="translate(138,62)"/>
<path d="M0 0 C2.97672584 1.77280561 5.42804007 3.85608015 7 7 C7.67660495 12.86390959 7.67660495 12.86390959 5.953125 15.7578125 C3.02250123 19.32627792 1.32898658 20.84665539 -3.25 21.375 C-8.19272958 20.88072704 -9.53828301 19.46171699 -13 16 C-14.57455739 12.85088521 -14.34799118 10.47991184 -14 7 C-10.42200413 0.99217111 -6.89711987 -0.68971199 0 0 Z M-6.875 7.125 C-8.27409643 9.02467776 -8.27409643 9.02467776 -7.6875 11.6875 C-7.460625 12.450625 -7.23375 13.21375 -7 14 C-4.65466049 14.76956136 -4.65466049 14.76956136 -2 15 C0 14 0 14 1 12 C0.76956136 9.34533951 0.76956136 9.34533951 0 7 C-3.54966644 5.86559731 -3.54966644 5.86559731 -6.875 7.125 Z " fill="#000000" transform="translate(56,72)"/>
<path d="M0 0 C1.18613892 0.00785522 1.18613892 0.00785522 2.39624023 0.01586914 C3.67724609 0.02070312 3.67724609 0.02070312 4.98413086 0.02563477 C5.88196289 0.03401367 6.77979492 0.04239258 7.70483398 0.05102539 C8.6065332 0.05553711 9.50823242 0.06004883 10.43725586 0.06469727 C12.67234712 0.07652315 14.90730835 0.09300319 17.14233398 0.11352539 C17.70483398 2.05102539 17.70483398 2.05102539 18.14233398 4.11352539 C17.14233398 5.11352539 17.14233398 5.11352539 15.28466797 5.22705078 C14.49390869 5.22181396 13.70314941 5.21657715 12.88842773 5.21118164 C12.03442383 5.20795898 11.18041992 5.20473633 10.30053711 5.20141602 C9.40270508 5.19303711 8.50487305 5.1846582 7.57983398 5.17602539 C6.67813477 5.17151367 5.77643555 5.16700195 4.84741211 5.16235352 C2.61232085 5.15052764 0.37735962 5.13404759 -1.85766602 5.11352539 C-2.42016602 3.17602539 -2.42016602 3.17602539 -2.85766602 1.11352539 C-1.85766602 0.11352539 -1.85766602 0.11352539 0 0 Z " fill="#000000" transform="translate(44.857666015625,114.886474609375)"/>
</svg>
