<?xml version="1.0" encoding="UTF-8"?>
<svg version="1.1" xmlns="http://www.w3.org/2000/svg" width="225" height="225">
<path d="M0 0 C74.25 0 148.5 0 225 0 C225 74.25 225 148.5 225 225 C150.75 225 76.5 225 0 225 C0 150.75 0 76.5 0 0 Z " fill="#010101" transform="translate(0,0)"/>
<path d="M0 0 C28.05 0 56.1 0 85 0 C85 74.25 85 148.5 85 225 C55.3 225 25.6 225 -5 225 C-3.35 223.35 -1.7 221.7 0 220 C0.70799401 216.52439302 0.81538515 214.33426661 -1.07421875 211.2421875 C-5.53554455 205.79081406 -11.15991537 201.35519213 -16.5625 196.875 C-18 195 -18 195 -17.94750977 192.76708984 C-16.63272101 188.9274053 -14.12780665 186.61296044 -11.27734375 183.8515625 C-10.69843887 183.27594574 -10.119534 182.70032898 -9.52308655 182.10726929 C-7.67039222 180.27029592 -5.80402617 178.44790561 -3.9375 176.625 C-2.70812165 175.40712025 -1.47959675 174.18837836 -0.25195312 172.96875 C0.94715628 171.78308467 2.14700394 170.59816541 3.34765625 169.4140625 C4.16690331 168.60589584 4.16690331 168.60589584 5.00270081 167.78140259 C7.825763 165.02585065 10.70125597 162.3736785 13.69433594 159.8034668 C19.20654913 155.01942921 24.36025134 149.86468489 29.54296875 144.73046875 C30.08101954 144.19774164 30.61907032 143.66501453 31.17342567 143.11614418 C34.01584341 140.30025424 36.85470999 137.48083375 39.69116211 134.65893555 C42.02053448 132.34292649 44.35697062 130.03441788 46.69995117 127.73217773 C49.55393243 124.92778101 52.39518995 122.11105732 55.22802162 119.28530312 C56.29974313 118.22024115 57.37567196 117.15939354 58.45607567 116.10313988 C68.10835712 106.65461266 74.82077734 97.15920083 75.375 83.25 C75.16161936 72.56763153 70.63188319 63.07468482 63.41015625 55.28515625 C56.03060643 48.46124312 47.21787805 45.00167186 37.3125 44.4375 C36.61060547 44.39431641 35.90871094 44.35113281 35.18554688 44.30664062 C33.45724794 44.2008264 31.7286489 44.09993419 30 44 C29.97421875 43.18917969 29.9484375 42.37835938 29.921875 41.54296875 C29.25027097 28.43142642 25.88031512 18.3396698 16.12109375 9.25 C11.23154803 5.29885195 5.90384375 3.05666688 0 1 C0 0.67 0 0.34 0 0 Z " fill="#000000" transform="translate(140,0)"/>
<path d="M0 0 C9.52080724 6.10015793 15.66872345 13.58757808 19.984375 23.984375 C20.92614565 29.54082183 20.76151871 35.05101034 20.609375 40.671875 C21.57617188 40.62546875 22.54296875 40.5790625 23.5390625 40.53125 C37.52139133 40.14362108 46.13397187 43.67802886 56.328125 53.29296875 C63.90117574 61.34899467 67.00553354 71.54965281 66.88671875 82.375 C65.56620941 98.0723223 55.0386536 107.54364954 44.4921875 118.01953125 C43.30886868 119.20165508 42.12592246 120.384152 40.94332886 121.56700134 C38.47360469 124.0351689 36.00058296 126.49996554 33.52490234 128.9621582 C30.37068795 132.09939369 27.22308566 135.24316091 24.07773018 138.38927555 C21.63804318 140.82868903 19.19574629 143.26547548 16.75259018 145.70141411 C15.59193338 146.85891574 14.4318575 148.01700019 13.27240372 149.17570686 C7.75085925 154.6897988 2.22648002 160.14969697 -3.70751953 165.22550964 C-8.14678579 169.04036322 -12.27492282 173.20183539 -16.453125 177.296875 C-16.94159912 177.76222656 -17.43007324 178.22757813 -17.93334961 178.70703125 C-19.36160963 180.06867865 -20.76907619 181.45203316 -22.17578125 182.8359375 C-23.42693726 184.04950928 -23.42693726 184.04950928 -24.70336914 185.28759766 C-26.6739467 187.5504979 -26.6739467 187.5504979 -26.25195312 190.34960938 C-25.2192761 193.13385649 -23.98386324 194.51347807 -21.828125 196.546875 C-21.11398438 197.2275 -20.39984375 197.908125 -19.6640625 198.609375 C-16.80627716 201.202005 -13.90941252 203.74217121 -10.95703125 206.2265625 C-8.5059643 208.48814547 -8.39256576 209.65091481 -8.078125 213.046875 C-8.390625 216.671875 -8.390625 216.671875 -9.890625 219.109375 C-12.64343763 220.82988289 -14.76010404 221.43318902 -18.01464844 221.36547852 C-23.58798344 219.73849077 -27.39290105 214.53748288 -31.265625 210.421875 C-32.22220132 209.44229159 -33.1805217 208.46440807 -34.140625 207.48828125 C-43.65774015 197.65935179 -43.65774015 197.65935179 -43.828125 189.921875 C-43.67249206 181.91650544 -40.46909596 177.69817975 -35.078125 172.109375 C-32.70729693 169.86099666 -30.27828922 167.70624401 -27.79296875 165.5859375 C-22.71906046 161.15683474 -18.00411241 156.39174518 -13.265625 151.609375 C-12.3100313 150.64936125 -11.35413316 149.68965047 -10.39794922 148.73022461 C-7.3926495 145.71361131 -4.39132888 142.69305904 -1.390625 139.671875 C2.09230511 136.16517349 5.57694002 132.66020034 9.06585693 129.15945435 C10.44590633 127.7730216 11.82285244 126.38350202 13.19970703 124.99389648 C17.64400007 120.53242298 22.1464517 116.22204346 26.9251709 112.12008667 C30.38436756 109.14559624 33.61185795 105.93558715 36.859375 102.734375 C37.55289063 102.06986328 38.24640625 101.40535156 38.9609375 100.72070312 C44.29364596 95.45439813 47.98076662 90.62560497 49.17578125 83.109375 C49.16597983 74.48412121 48.18573238 69.33209233 42.1171875 63.15234375 C37.04949675 58.59667357 32.5021375 57.37080292 25.796875 57.296875 C24.63542969 57.26851562 23.47398437 57.24015625 22.27734375 57.2109375 C13.5409231 58.30880506 8.15979847 63.57055139 2.234375 69.69140625 C1.46561035 70.46820236 0.6968457 71.24499847 -0.09521484 72.04533386 C-2.53672136 74.5156706 -4.96415756 76.99927276 -7.390625 79.484375 C-9.81962437 81.95612823 -12.25152046 84.42496018 -14.68603516 86.89128113 C-16.1947021 88.42134207 -17.69982437 89.9549096 -19.20068359 91.49263 C-23.15929986 95.52528659 -27.22316507 99.33076835 -31.50616455 103.01597595 C-34.39548769 105.55486046 -37.09196887 108.26777301 -39.7890625 111.0078125 C-40.35009674 111.57263336 -40.91113098 112.13745422 -41.48916626 112.71939087 C-43.25048808 114.49275907 -45.00846188 116.26938667 -46.765625 118.046875 C-49.10390415 120.41171831 -51.44546869 122.77323742 -53.7890625 125.1328125 C-54.32236176 125.6744101 -54.85566101 126.21600769 -55.40512085 126.77401733 C-60.15701759 131.55765209 -60.15701759 131.55765209 -64.765625 131.984375 C-68.390625 131.671875 -68.390625 131.671875 -70.828125 130.109375 C-73.09222458 126.57737965 -73.1493657 124.81046066 -72.390625 120.671875 C-69.47468999 115.83011724 -64.86228988 112.16242601 -60.73304749 108.37001038 C-49.98698405 98.4800324 -39.73925252 88.09782106 -29.453125 77.734375 C-25.8428123 74.09729328 -22.22906279 70.46367528 -18.61328125 66.83203125 C-17.40056297 65.60686546 -17.40056297 65.60686546 -16.16334534 64.35694885 C-11.9170602 60.0924908 -7.59894909 56.00662203 -2.99949646 52.123703 C1.17290921 48.35856978 3.18993093 43.33701517 4.05078125 37.8671875 C4.31678943 31.67177128 3.34805907 26.68611011 -0.390625 21.671875 C-5.554574 16.04777213 -11.4720425 12.63090802 -19.203125 12.171875 C-29.4168251 12.65208881 -36.32816637 18.9102587 -43.015625 26.046875 C-44.42193716 27.51545928 -45.83077693 28.98162747 -47.2421875 30.4453125 C-47.84885254 31.08903809 -48.45551758 31.73276367 -49.08056641 32.39599609 C-51.00755708 34.29447496 -52.96659838 36.04725422 -55.01708984 37.80712891 C-60.09087954 42.21072766 -64.78910216 46.96408019 -69.515625 51.734375 C-70.4712187 52.69438875 -71.42711684 53.65409953 -72.38330078 54.61352539 C-75.3886005 57.63013869 -78.38992112 60.65069096 -81.390625 63.671875 C-84.87355511 67.17857651 -88.35819002 70.68354966 -91.84710693 74.18429565 C-93.22715633 75.5707284 -94.60410244 76.96024798 -95.98095703 78.34985352 C-100.42563224 82.81171067 -104.93397849 87.10648224 -109.71310425 91.20806885 C-111.73766147 92.97469934 -113.59562844 94.85404097 -115.42578125 96.8203125 C-116.09029297 97.51511719 -116.75480469 98.20992188 -117.43945312 98.92578125 C-118.79548663 100.35415408 -120.14170796 101.79189919 -121.47851562 103.23828125 C-124.72141771 106.59778915 -126.62986887 108.45774201 -131.20703125 109.74609375 C-134.390625 109.671875 -134.390625 109.671875 -137.265625 108.109375 C-139.390625 105.671875 -139.390625 105.671875 -140.640625 102.921875 C-139.9984092 94.57306962 -128.60130684 86.73611433 -122.92578125 81.07421875 C-121.92347419 80.07123597 -120.92131544 79.06810497 -119.91929626 78.06483459 C-117.83070966 75.97478362 -115.74035112 73.88652612 -113.64868164 71.79956055 C-110.9883209 69.1448963 -108.33247658 66.48576616 -105.67795658 63.82526302 C-103.61295894 61.75662551 -101.54555296 59.69040801 -99.4774456 57.62487984 C-98.49806089 56.64615495 -97.51939819 55.66670694 -96.54152107 54.68647575 C-91.58808785 49.72373289 -86.59061041 44.90406584 -81.27088928 40.33644104 C-77.94431744 37.39148348 -74.87467238 34.19785923 -71.77734375 31.015625 C-70.35006366 29.56595884 -68.92231467 28.11675421 -67.49414062 26.66796875 C-65.28462713 24.42146262 -63.07835159 22.17210771 -60.88012695 19.91455078 C-44.3972927 3.00955245 -24.55109069 -12.34489871 0 0 Z " fill="#FBFBFB" transform="translate(149.390625,3.328125)"/>
<path d="M0 0 C2.5 1.5625 2.5 1.5625 4 4 C4.49783368 8.22067573 4.50498122 10.27621037 2.04174805 13.8067627 C1.12433838 14.71164429 0.20692871 15.61652588 -0.73828125 16.54882812 C-1.24237015 17.0555455 -1.74645905 17.56226288 -2.26582336 18.08433533 C-3.93183764 19.75057071 -5.62137177 21.39054151 -7.3125 23.03125 C-8.48306406 24.19128165 -9.65215056 25.35280602 -10.81982422 26.51574707 C-13.89865489 29.57354512 -16.99833426 32.60935032 -20.10247803 35.64141846 C-22.61570567 38.10307033 -25.11420647 40.57936544 -27.61192322 43.05673981 C-48.44938516 63.72334356 -48.44938516 63.72334356 -57 71 C-64.19061222 77.42681426 -70.99072904 84.35106538 -71.5625 94.5 C-71.0967963 101.42427867 -68.78441549 107.81395794 -63.5625 112.5 C-57.00272335 117.7356454 -50.07235834 117.62018119 -42 117 C-31.78827915 114.15411058 -24.21092397 104.32018039 -17 97 C-15.29418982 95.26834421 -13.58589134 93.53913574 -11.875 91.8125 C-11.12992187 91.05582031 -10.38484375 90.29914063 -9.6171875 89.51953125 C-7.52837843 87.50866281 -5.41251327 85.6092687 -3.21826172 83.71826172 C1.17714397 79.90153331 5.27618934 75.8335915 9.3671875 71.6953125 C10.12798615 70.93072723 10.88878479 70.16614197 11.67263794 69.37838745 C14.07589013 66.96302617 16.47584041 64.54442602 18.875 62.125 C22.05704779 58.91642462 25.24235115 55.71113336 28.4296875 52.5078125 C29.15985077 51.76935089 29.89001404 51.03088928 30.64230347 50.27005005 C31.31705719 49.5919931 31.99181091 48.91393616 32.68701172 48.21533203 C33.2802121 47.61689484 33.87341248 47.01845764 34.48458862 46.40188599 C36.64645471 44.40197374 37.85050338 44.01661074 40.8125 43.6875 C44.84672885 44.08301263 46.34140758 44.95043811 49 48 C49.75 51.25 49.75 51.25 49 55 C47.0681767 58.0559156 44.55871869 60.46218587 42 63 C40.97293982 64.04978575 39.9469762 65.10064499 38.921875 66.15234375 C34.52801236 70.62378663 30.14907439 75.04722903 25.37402344 79.11499023 C20.55613212 83.31540383 16.10583046 87.84073983 11.63671875 92.40625 C9.84485435 94.22049991 8.05252211 96.03428785 6.25976562 97.84765625 C3.47086828 100.67358846 0.68515342 103.50239665 -2.0925293 106.33935547 C-4.79847328 109.10017071 -7.51727825 111.84778568 -10.23828125 114.59375 C-11.05323563 115.43248657 -11.86819 116.27122314 -12.70783997 117.13537598 C-21.74490503 126.21260628 -32.36370015 134.26490253 -45.59667969 134.46777344 C-46.34852539 134.4577832 -47.10037109 134.44779297 -47.875 134.4375 C-49.05690918 134.42831543 -49.05690918 134.42831543 -50.26269531 134.41894531 C-59.19483579 134.17972441 -65.84034251 131.3281172 -73 126 C-73.825 125.443125 -74.65 124.88625 -75.5 124.3125 C-82.75186598 117.60452397 -87.28907576 108.3620465 -88.3828125 98.57421875 C-88.81688891 85.33488832 -84.62300666 76.16183587 -75.77749634 66.59667969 C-73.15971337 63.91287875 -70.51284047 61.26177109 -67.8515625 58.62109375 C-66.8700255 57.6407526 -65.88886201 56.66003736 -64.90805054 55.67897034 C-62.86203037 53.63450444 -60.81272849 51.59340907 -58.76074219 49.55493164 C-56.1513343 46.9625003 -53.54854465 44.36354796 -50.94799232 41.7622366 C-48.92521257 39.73973086 -46.89982098 37.71985755 -44.87357712 35.70082283 C-43.45256059 34.28446561 -42.03297699 32.86667119 -40.61343384 31.44883728 C-36.09232777 26.96047263 -31.51065163 22.62440209 -26.67855835 18.4730072 C-24.57825856 16.62990373 -22.6689744 14.6565232 -20.78125 12.59765625 C-20.07613281 11.85322266 -19.37101562 11.10878906 -18.64453125 10.34179688 C-17.20114012 8.80770084 -15.77160146 7.26046555 -14.35546875 5.70117188 C-9.55575716 0.69525695 -6.99267473 -1.16042231 0 0 Z " fill="#FBFBFB" transform="translate(134,31)"/>
</svg>
