<?xml version="1.0" encoding="UTF-8"?>
<svg version="1.1" xmlns="http://www.w3.org/2000/svg" width="225" height="225">
<path d="M0 0 C74.25 0 148.5 0 225 0 C225 74.25 225 148.5 225 225 C150.75 225 76.5 225 0 225 C0 150.75 0 76.5 0 0 Z " fill="#1C3C3C" transform="translate(0,0)"/>
<path d="M0 0 C0.33 0 0.66 0 1 0 C1.21914063 0.95519531 1.43828125 1.91039063 1.6640625 2.89453125 C5.44203952 18.61263015 12.22128814 31.16496642 26.0625 40.3125 C42.8533732 49.64332077 58.51722509 49.73276776 77.37890625 49.62890625 C80.12264157 49.62736748 82.86636024 49.63214832 85.61009216 49.63621521 C91.33646841 49.64070882 97.0625151 49.62503647 102.78881836 49.59692383 C109.36804464 49.56486876 115.94667775 49.56490251 122.5259462 49.5821386 C128.90974053 49.59811254 135.29332161 49.59120194 141.67710686 49.57420158 C144.36940568 49.5674071 147.06125227 49.56945923 149.75360298 49.57574654 C171.73241032 49.60781813 191.94650767 48.55588913 208.74609375 32.484375 C216.91838779 23.47643911 221.39122111 12.73950501 224 1 C224.33 1 224.66 1 225 1 C225 35.65 225 70.3 225 106 C150.75 106 76.5 106 0 106 C0 71.02 0 36.04 0 0 Z " fill="#FEFEFE" transform="translate(0,119)"/>
<path d="M0 0 C74.25 0 148.5 0 225 0 C225 34.65 225 69.3 225 105 C224.67 105 224.34 105 224 105 C223.79697266 103.92685547 223.79697266 103.92685547 223.58984375 102.83203125 C220.21883318 87.22849132 212.17640843 74.40878286 198.75 65.625 C186.52597071 58.53964345 174.35577376 56.85340374 160.51953125 56.83886719 C159.38192856 56.83390228 158.24432587 56.82893738 157.07225037 56.82382202 C153.31899401 56.80925167 149.56577996 56.80240577 145.8125 56.796875 C143.19042969 56.79111792 140.56835937 56.78536026 137.94628906 56.77960205 C133.15030711 56.77004494 128.35433418 56.76413993 123.55834389 56.7611053 C116.53855615 56.75663716 109.51896434 56.73914019 102.49923611 56.7101047 C96.38622888 56.68571339 90.27330126 56.67815271 84.1602478 56.67642975 C81.57692399 56.67342063 78.99360064 56.66545165 76.41030884 56.65224457 C53.95721467 56.54567645 33.32273202 56.94951291 16.1796875 73.55859375 C8.39965424 82.27278871 2.61337524 93.38026558 1 105 C0.67 105 0.34 105 0 105 C0 70.35 0 35.7 0 0 Z " fill="#FEFEFE" transform="translate(0,0)"/>
<path d="M0 0 C5.59182937 2.79042173 7.59551009 7.02168508 10.35327148 12.43920898 C13.51563739 18.25518314 17.79350444 22.5028374 22.55078125 27.0546875 C31.31058893 35.47213199 37.0919716 43.63997811 41.84765625 54.859375 C44.06311724 59.7303543 47.04610602 65.89609989 51.98828125 68.3671875 C51.98828125 69.0271875 51.98828125 69.6871875 51.98828125 70.3671875 C44.10157526 70.22680924 39.66380495 69.91072228 33.98828125 64.3671875 C31.69739993 63.17255614 29.40948105 62.28724342 26.98828125 61.3671875 C27.02953125 62.1096875 27.07078125 62.8521875 27.11328125 63.6171875 C26.98429991 66.45477702 26.41776903 67.95492688 24.98828125 70.3671875 C27.29828125 70.3671875 29.60828125 70.3671875 31.98828125 70.3671875 C31.98828125 71.3571875 31.98828125 72.3471875 31.98828125 73.3671875 C30.93640625 73.3053125 29.88453125 73.2434375 28.80078125 73.1796875 C24.76007057 73.37841098 23.30017918 74.25125271 19.98828125 76.3671875 C18.99828125 76.0371875 18.00828125 75.7071875 16.98828125 75.3671875 C16.98828125 74.7071875 16.98828125 74.0471875 16.98828125 73.3671875 C15.89515625 73.3878125 14.80203125 73.4084375 13.67578125 73.4296875 C9.98828125 73.3671875 9.98828125 73.3671875 6.98828125 72.3671875 C5.87453125 72.5528125 4.76078125 72.7384375 3.61328125 72.9296875 C-0.1146835 73.37961428 -1.73642647 73.05445928 -5.01171875 71.3671875 C-4.68171875 70.7071875 -4.35171875 70.0471875 -4.01171875 69.3671875 C0.6818443 68.42847489 5.21260256 68.26972467 9.98828125 68.3671875 C9.67890625 67.7071875 9.36953125 67.0471875 9.05078125 66.3671875 C8.12000431 63.73911142 7.84836563 62.02035344 7.67578125 59.3046875 C6.83768153 54.50466185 5.80029193 54.13955891 1.98828125 51.3671875 C-2.98497738 45.43417721 -4.35342607 38.75843485 -6.01171875 31.3671875 C-6.51203324 29.4866084 -7.03141478 27.61094543 -7.57421875 25.7421875 C-7.91646484 24.54722656 -7.91646484 24.54722656 -8.265625 23.328125 C-8.93209318 21.17385715 -8.93209318 21.17385715 -11.01171875 19.3671875 C-13.00457812 18.99352637 -15.00535404 18.65978235 -17.01171875 18.3671875 C-17.67171875 18.0371875 -18.33171875 17.7071875 -19.01171875 17.3671875 C-19.34171875 18.3571875 -19.67171875 19.3471875 -20.01171875 20.3671875 C-21.01171875 19.3671875 -21.01171875 19.3671875 -21.26171875 15.5546875 C-21.23043405 12.65042428 -21.07167763 11.47620365 -19.63671875 8.8671875 C-18.01171875 7.3671875 -18.01171875 7.3671875 -16.01171875 7.3671875 C-15.94984375 6.6040625 -15.88796875 5.8409375 -15.82421875 5.0546875 C-15.01171875 2.3671875 -15.01171875 2.3671875 -12.94921875 0.5546875 C-8.38798915 -1.28921383 -4.6286489 -1.45600218 0 0 Z " fill="#FCFCFC" transform="translate(62.01171875,74.6328125)"/>
<path d="M0 0 C1.83498047 -0.03867188 1.83498047 -0.03867188 3.70703125 -0.078125 C7.38762162 0.26886668 9.26172282 1.04312807 12.1875 3.25 C12.1875 3.58 12.1875 3.91 12.1875 4.25 C11.52363281 4.37117188 10.85976562 4.49234375 10.17578125 4.6171875 C5.65325541 5.47547708 1.38811476 6.28971311 -2.8125 8.25 C-2.3484375 9.2709375 -2.3484375 9.2709375 -1.875 10.3125 C-0.8125 13.25 -0.8125 13.25 -0.58984375 16.5078125 C0.40354702 21.29006556 2.4338034 23.55546819 5.6875 27.0625 C6.22850342 27.66852051 6.76950684 28.27454102 7.3269043 28.89892578 C8.93438699 30.69461662 10.55949482 32.47292693 12.1875 34.25 C13.7920631 36.04131164 15.39628029 37.83293325 17 39.625 C17.71671875 40.41519531 18.4334375 41.20539063 19.171875 42.01953125 C21.62148662 44.73024489 24.02810007 47.47536722 26.4140625 50.2421875 C27.71222559 51.71191399 29.04570043 53.15065558 30.3984375 54.5703125 C31.13320312 55.35148437 31.86796875 56.13265625 32.625 56.9375 C33.64400391 57.99517578 33.64400391 57.99517578 34.68359375 59.07421875 C36.50284849 61.70623145 36.58488664 63.11273708 36.1875 66.25 C35 68.0625 35 68.0625 33.1875 69.25 C30.32008741 69.58624382 28.7955619 69.70298571 26.44140625 67.94921875 C20.52946424 60.91769419 15.15705587 53.50643582 9.74609375 46.0859375 C6.55438372 41.72361655 3.28177524 37.4337418 -0.0625 33.1875 C-0.5160083 32.61040283 -0.9695166 32.03330566 -1.43676758 31.4387207 C-5.04314672 26.88538023 -7.21118508 24.95474802 -12.8125 23.25 C-13.369375 24.054375 -13.92625 24.85875 -14.5 25.6875 C-17.09739785 28.56569762 -18.12152107 28.7174707 -21.8125 29.25 C-23.01800294 28.03848458 -24.20142747 26.80497111 -25.375 25.5625 C-26.03628906 24.87800781 -26.69757813 24.19351563 -27.37890625 23.48828125 C-28.8125 21.25 -28.8125 21.25 -28.71484375 18.60546875 C-27.8125 16.25 -27.8125 16.25 -24.8125 14.25 C-22.125 14.125 -22.125 14.125 -19.8125 14.25 C-19.97878906 13.14398438 -19.97878906 13.14398438 -20.1484375 12.015625 C-19.8125 9.25 -19.8125 9.25 -17.4765625 7.046875 C-16.47367188 6.37140625 -15.47078125 5.6959375 -14.4375 5 C-12.94089844 3.97132812 -12.94089844 3.97132812 -11.4140625 2.921875 C-7.2991357 0.27744757 -4.92419169 0.06187466 0 0 Z " fill="#F9FAFA" transform="translate(144.8125,77.75)"/>
<path d="M0 0 C-0.43542082 2.93909054 -1.12487702 4.15136608 -3.0625 6.5 C-5.40838111 8.99979416 -5.40838111 8.99979416 -5 13 C-2.3409095 15.17334381 -2.3409095 15.17334381 -0.125 15 C3.18419649 13.44273106 4.78921663 10.88630051 7 8 C8.32 8.33 9.64 8.66 11 9 C10.29024344 15.08187949 9.27074568 20.13908361 4.96875 24.68359375 C1.79008837 26.80900837 -1.56172248 26.95841169 -5.296875 27.40234375 C-9.69695174 28.37519309 -11.89826199 30.82933447 -15 34 C-16.98 31.36 -18.96 28.72 -21 26 C-20.360625 25.2575 -19.72125 24.515 -19.0625 23.75 C-16.84147444 20.51871629 -16.71534272 17.81110765 -16.5625 13.9375 C-16.24516875 8.35660909 -16.24516875 8.35660909 -13.9375 5 C-4.42657343 -1.47552448 -4.42657343 -1.47552448 0 0 Z " fill="#FAFBFB" transform="translate(174,79)"/>
<path d="M0 0 C1.2890625 1.75 1.2890625 1.75 2.625 4 C3.07101563 4.7425 3.51703125 5.485 3.9765625 6.25 C4.31429687 6.8275 4.65203125 7.405 5 8 C2.94521427 10.90137727 0.87981644 13.79504108 -1.1875 16.6875 C-1.76564453 17.50412109 -2.34378906 18.32074219 -2.93945312 19.16210938 C-6.03317566 23.479338 -9.10271619 27.38770952 -13 31 C-13.33 31.33 -13.66 31.66 -14 32 C-20.19266055 31.6559633 -20.19266055 31.6559633 -23 29.375 C-24.55672162 25.67778616 -24.21534206 23.83792228 -23 20 C-20.61799646 17.00480743 -17.87199255 14.51920453 -15 12 C-14.29617187 11.37738281 -13.59234375 10.75476563 -12.8671875 10.11328125 C-11.52602984 8.937856 -10.17861271 7.76952386 -8.82421875 6.609375 C-7.17528084 5.15463749 -5.64510131 3.64946794 -4.125 2.0625 C-2 0 -2 0 0 0 Z " fill="#F7F8F8" transform="translate(147,115)"/>
<path d="M0 0 C0.66 0 1.32 0 2 0 C3.34331654 1.99330842 4.67594012 3.99384866 6 6 C9.44450737 8.29633824 11.93812283 8.54016485 16 9 C16 9.99 16 10.98 16 12 C14.4221875 11.9071875 14.4221875 11.9071875 12.8125 11.8125 C8.77178932 12.01122348 7.31189793 12.88406521 4 15 C3.01 14.67 2.02 14.34 1 14 C1.66 12.68 2.32 11.36 3 10 C2.34 10 1.68 10 1 10 C1 9.34 1 8.68 1 8 C-0.65 8 -2.3 8 -4 8 C-4 7.34 -4 6.68 -4 6 C-3.01 5.34 -2.02 4.68 -1 4 C-0.27617533 1.94074861 -0.27617533 1.94074861 0 0 Z " fill="#E4E7E7" transform="translate(78,136)"/>
<path d="M0 0 C0.33 0.66 0.66 1.32 1 2 C2.65 2 4.3 2 6 2 C6 2.66 6 3.32 6 4 C6.66 4.33 7.32 4.66 8 5 C5.01002175 6.49498913 2.29957225 6.11577446 -1 6 C-1.99 5.67 -2.98 5.34 -4 5 C-5.670625 5.2784375 -5.670625 5.2784375 -7.375 5.5625 C-11.10296475 6.01242678 -12.72470772 5.68727178 -16 4 C-15.67 3.34 -15.34 2.68 -15 2 C-11.30515085 1.20307175 -8.42596866 0.9276657 -4.6875 1.5625 C-3.800625 1.706875 -2.91375 1.85125 -2 2 C-1.34 1.34 -0.68 0.68 0 0 Z " fill="#F0F2F2" transform="translate(73,142)"/>
<path d="M0 0 C0.66 0 1.32 0 2 0 C4.1875 2.8125 4.1875 2.8125 6 6 C5.67 6.99 5.34 7.98 5 9 C2.03 8.67 -0.94 8.34 -4 8 C-4 7.34 -4 6.68 -4 6 C-3.01 5.34 -2.02 4.68 -1 4 C-0.27617533 1.94074861 -0.27617533 1.94074861 0 0 Z " fill="#214040" transform="translate(78,136)"/>
<path d="M0 0 C-1.08231478 2.52540116 -2.06855624 4.06647878 -4.0625 6 C-6.07607222 8.07852616 -6.59824094 9.18768658 -7 12 C-7.99 10.68 -8.98 9.36 -10 8 C-8.71451591 6.66070495 -7.42141845 5.32871357 -6.125 4 C-5.04605469 2.88625 -5.04605469 2.88625 -3.9453125 1.75 C-2 0 -2 0 0 0 Z " fill="#294949" transform="translate(168,106)"/>
<path d="M0 0 C1.65 0 3.3 0 5 0 C5.33 1.32 5.66 2.64 6 4 C4.35 3.67 2.7 3.34 1 3 C0.67 2.01 0.34 1.02 0 0 Z " fill="#103333" transform="translate(126,139)"/>
</svg>
