<?xml version="1.0" encoding="UTF-8"?>
<svg version="1.1" xmlns="http://www.w3.org/2000/svg" width="225" height="225">
<path d="M0 0 C74.25 0 148.5 0 225 0 C225 74.25 225 148.5 225 225 C150.75 225 76.5 225 0 225 C0 150.75 0 76.5 0 0 Z " fill="#1C3C3C" transform="translate(0,0)"/>
<path d="M0 0 C0.33 0 0.66 0 1 0 C1.20302734 1.27230469 1.20302734 1.27230469 1.41015625 2.5703125 C4.18879435 17.71139437 10.44814479 30.8547161 23.0078125 40.25 C32.87812189 46.71921483 44.25223801 51.08948973 56.16989136 51.14717102 C57.70009666 51.15790398 57.70009666 51.15790398 59.26121521 51.16885376 C60.369814 51.17154266 61.47841278 51.17423157 62.62060547 51.17700195 C63.79693039 51.18357315 64.97325531 51.19014435 66.18522644 51.19691467 C70.07920692 51.21662646 73.97317383 51.22831692 77.8671875 51.23828125 C79.21435694 51.2423327 80.56152618 51.24644974 81.90869522 51.25063133 C88.24599131 51.26967507 94.58327588 51.28390258 100.92059505 51.2922433 C108.19967816 51.30198491 115.47845468 51.32822664 122.75742996 51.36874419 C128.40527926 51.39908591 134.05304166 51.41372948 139.70097077 51.41702431 C143.06344861 51.41935619 146.42534061 51.43009818 149.78777695 51.45348549 C171.7903875 51.59695707 191.92154703 50.57976801 208.74609375 34.484375 C217.75524594 24.55400967 222.10877308 13.08928108 224 0 C224.33 0 224.66 0 225 0 C225 35.64 225 71.28 225 108 C150.75 108 76.5 108 0 108 C0 72.36 0 36.72 0 0 Z " fill="#FEFEFE" transform="translate(0,117)"/>
<path d="M0 0 C74.25 0 148.5 0 225 0 C225 34.65 225 69.3 225 105 C223.45836956 101.91673913 222.58343633 99.68042214 221.75 96.4375 C217.44417201 81.92131753 208.43304316 71.25071169 195.421875 63.69140625 C187.20384617 59.62929839 178.02522549 56.89049073 168.81665039 56.85955811 C167.7936232 56.85384796 166.77059601 56.84813782 165.71656799 56.84225464 C164.60482712 56.84113678 163.49308624 56.84001892 162.34765625 56.83886719 C161.16811874 56.83390228 159.98858124 56.82893738 158.77330017 56.82382202 C155.54348167 56.81173598 152.31369931 56.80426029 149.0838623 56.79981136 C147.06038132 56.79687192 145.0369059 56.79276534 143.01342773 56.78830719 C136.66652136 56.77463857 130.31962782 56.76497072 123.97270775 56.7611053 C116.67668069 56.75663616 109.38084206 56.73913909 102.08487225 56.7101047 C96.42686179 56.68838063 90.7689039 56.67839522 85.11085224 56.67706418 C81.74071039 56.6760231 78.37088573 56.66878696 75.00076294 56.65224457 C71.22953314 56.63506026 67.45875379 56.63709513 63.6875 56.64355469 C62.59195297 56.6343399 61.49640594 56.62512512 60.36766052 56.6156311 C43.72416426 56.70428014 28.28235701 61.83289264 16.1796875 73.55859375 C8.39965424 82.27278871 2.61337524 93.38026558 1 105 C0.67 105 0.34 105 0 105 C0 70.35 0 35.7 0 0 Z " fill="#FEFEFE" transform="translate(0,0)"/>
<path d="M0 0 C4.23165486 2.31543379 6.29987028 4.56041149 8.2890625 8.984375 C11.64800505 16.13567205 16.09318682 20.85833868 21.75 26.3125 C30.60668357 34.87524422 36.33219366 42.88712941 41.171875 54.3046875 C43.38733599 59.1756668 46.37032477 65.34141239 51.3125 67.8125 C51.3125 68.4725 51.3125 69.1325 51.3125 69.8125 C43.42579401 69.67212174 38.9880237 69.35603478 33.3125 63.8125 C31.02161868 62.61786864 28.7336998 61.73255592 26.3125 60.8125 C26.333125 61.555 26.35375 62.2975 26.375 63.0625 C26.31921312 65.51712279 26.0055096 67.47359261 25.3125 69.8125 C27.6225 70.1425 29.9325 70.4725 32.3125 70.8125 C31.9825 71.4725 31.6525 72.1325 31.3125 72.8125 C30.260625 72.750625 29.20875 72.68875 28.125 72.625 C24.08428932 72.82372348 22.62439793 73.69656521 19.3125 75.8125 C18.3225 75.4825 17.3325 75.1525 16.3125 74.8125 C16.3125 74.1525 16.3125 73.4925 16.3125 72.8125 C15.219375 72.833125 14.12625 72.85375 13 72.875 C9.3125 72.8125 9.3125 72.8125 6.3125 71.8125 C5.19875 71.9775 4.085 72.1425 2.9375 72.3125 C-0.38972855 72.77142808 -2.49345544 72.68360306 -5.6875 71.8125 C-5.1925 70.3275 -5.1925 70.3275 -4.6875 68.8125 C0.03633963 68.16093591 4.53224517 67.69299363 9.3125 67.8125 C9.003125 67.1525 8.69375 66.4925 8.375 65.8125 C7.44422306 63.18442392 7.17258438 61.46566594 7 58.75 C6.16190028 53.94997435 5.12451068 53.58487141 1.3125 50.8125 C-4.40650207 43.83933081 -5.94220362 35.50215608 -7.6875 26.875 C-8.42390424 23.55524216 -9.01607423 21.10229351 -11.6875 18.8125 C-14.71020522 18.07249616 -14.71020522 18.07249616 -17.6875 17.8125 C-18.3475 17.4825 -19.0075 17.1525 -19.6875 16.8125 C-20.0175 17.8025 -20.3475 18.7925 -20.6875 19.8125 C-21.6875 18.8125 -21.6875 18.8125 -21.9375 15 C-21.9062153 12.09573678 -21.74745888 10.92151615 -20.3125 8.3125 C-18.6875 6.8125 -18.6875 6.8125 -16.6875 6.8125 C-16.625625 6.049375 -16.56375 5.28625 -16.5 4.5 C-15.6875 1.8125 -15.6875 1.8125 -13.5625 0 C-8.65441458 -2.02725267 -4.99857947 -1.60971203 0 0 Z " fill="#FBFCFC" transform="translate(62.6875,75.1875)"/>
<path d="M0 0 C1.65 0.66 3.3 1.32 5 2 C3.95833333 3.66015625 2.91666667 5.3203125 1.875 6.98046875 C0.66870198 9.39782454 0.66870198 9.39782454 1 14 C5.95 14 10.9 14 16 14 C16 15.65 16 17.3 16 19 C11.05 19 6.1 19 1 19 C0.92473695 23.94732628 0.92473695 23.94732628 3 27.8125 C3.66 28.864375 4.32 29.91625 5 31 C3.35 31.66 1.7 32.32 0 33 C-0.495 32.05125 -0.99 31.1025 -1.5 30.125 C-2.83356593 28.08905771 -3.55606252 27.1584829 -5.87109375 26.33203125 C-7.25647552 26.06752547 -8.6418926 25.80320459 -10.02734375 25.5390625 C-13.44216475 24.6059035 -14.99354384 22.82157897 -17 20 C-17.64935921 15.95954272 -17.42402523 13.82961458 -15.5625 10.1875 C-12.4201851 7.50503606 -10.10706438 7.3299028 -6.12890625 6.66796875 C-3.59700321 5.87355514 -2.86655853 5.07236957 -1.4375 2.875 C-0.963125 1.92625 -0.48875 0.9775 0 0 Z " fill="#F6F7F7" transform="translate(144,94)"/>
<path d="M0 0 C0.515625 0.94875 1.03125 1.8975 1.5625 2.875 C4.58743532 6.7531222 6.25510123 6.73667319 10.87109375 7.53515625 C13 8 13 8 15.5625 9.5625 C17.77778929 13.31886011 17.99403455 16.76782258 17 21 C14.73905322 24.3604483 11.96469261 25.79902237 8 26.625 C3.79664128 25.74930027 1.88471945 24.15306544 -1 21 C-1.952372 17.44447786 -2.29097148 15.05807812 -1.3125 11.5 C-0.81567 7.52536002 -2.86356391 5.30176487 -5 2 C-2 0 -2 0 0 0 Z " fill="#F7F7F7" transform="translate(167,94)"/>
<path d="M0 0 C2.75329021 1.79562405 4.52627461 3.05254922 6 6 C6.41204834 10.63554388 5.87454146 13.30416098 3 17 C0.36647362 19.0691993 -1.0381031 18.99930722 -4.4375 18.9375 C-8.7605007 17.79986824 -10.40006166 16.62415648 -13 13 C-13.69151325 8.69725091 -13.51557405 6.79054688 -11.125 3.125 C-7.54668265 -0.45331735 -4.99886778 -0.42363286 0 0 Z " fill="#F8F8F8" transform="translate(159,128)"/>
<path d="M0 0 C3.03798467 2.59340154 3.86323667 4.06219433 4.4375 8 C3.83510847 12.13068475 2.55847427 14.7754845 -0.75 17.375 C-4.18832218 18.33008949 -6.56397688 17.90421661 -10 17 C-13.66182182 14.35102251 -14.84097547 12.98948597 -15.5625 8.5 C-14.91877781 4.49461748 -13.84054174 2.84054174 -11 0 C-7.49055854 -1.75472073 -3.71048867 -0.95563207 0 0 Z " fill="#F8F8F8" transform="translate(161,75)"/>
<path d="M0 0 C0.80824219 0.10183594 1.61648437 0.20367187 2.44921875 0.30859375 C3.06410156 0.39238281 3.67898437 0.47617188 4.3125 0.5625 C3.9825 1.5525 3.6525 2.5425 3.3125 3.5625 C-1.0039922 4.32423392 -4.43183453 4.72313604 -8.6875 3.5625 C-8.3575 2.5725 -8.0275 1.5825 -7.6875 0.5625 C-4.59271121 -0.46909626 -3.16118607 -0.41232862 0 0 Z " fill="#ECEDED" transform="translate(65.6875,143.4375)"/>
</svg>
