<?xml version="1.0" encoding="UTF-8"?>
<svg version="1.1" xmlns="http://www.w3.org/2000/svg" width="225" height="225">
<path d="M0 0 C74.25 0 148.5 0 225 0 C225 74.25 225 148.5 225 225 C150.75 225 76.5 225 0 225 C0 150.75 0 76.5 0 0 Z " fill="#FEFEFE" transform="translate(0,0)"/>
<path d="M0 0 C1.07400055 -0.0049649 2.1480011 -0.00992981 3.25454712 -0.01504517 C6.80040127 -0.02962453 10.34621066 -0.03646246 13.89208984 -0.04199219 C16.36583456 -0.04774795 18.83957927 -0.05350563 21.31332397 -0.05926514 C26.49990038 -0.0697637 31.68646134 -0.07561358 36.87304688 -0.07910156 C43.49690951 -0.08457801 50.12056574 -0.10859299 56.74436378 -0.13707352 C61.85583072 -0.15576201 66.96724859 -0.16090885 72.0787468 -0.16243744 C74.51941428 -0.16545143 76.96008115 -0.17343725 79.40071487 -0.18662262 C82.82719548 -0.20380982 86.25318046 -0.20177166 89.6796875 -0.1953125 C90.67440063 -0.20452728 91.66911377 -0.21374207 92.69396973 -0.22323608 C107.98669064 -0.13360592 121.88301491 5.05242909 132.97412109 15.68066406 C142.83132985 26.52871876 147.71631878 39.85848379 147.56787109 54.42285156 C146.22383623 69.20723501 139.43161338 82.47930644 128.09912109 92.08691406 C116.24221705 100.65292229 104.37750542 103.478478 89.9543457 103.41992188 C88.87494217 103.42342651 87.79553864 103.42693115 86.6834259 103.43054199 C83.14484061 103.43928506 79.60645813 103.43353683 76.06787109 103.42675781 C73.59265607 103.42810649 71.1174413 103.43004872 68.64222717 103.43255615 C63.46694403 103.43549728 58.29173014 103.43124193 53.11645508 103.421875 C46.49693006 103.41047519 39.87756715 103.41704984 33.25804806 103.42901993 C28.15099373 103.43626071 23.04397758 103.43394049 17.93692207 103.42876434 C15.49657738 103.4274343 13.05622918 103.42905286 10.6158886 103.43372345 C7.20127096 103.43882579 3.78691286 103.43102652 0.37231445 103.41992188 C-0.62690033 103.42397034 -1.62611511 103.4280188 -2.65560913 103.43218994 C-17.58469634 103.34265011 -30.80736658 98.09285578 -41.59228516 87.59082031 C-51.57197061 76.46651144 -56.77816323 62.73348171 -56.18603516 47.79003906 C-54.74866767 35.19273345 -49.23861964 22.42654168 -39.77587891 13.74707031 C-27.32014982 3.88931981 -15.68462393 0.01741376 0 0 Z " fill="#213E3E" transform="translate(66.77197265625,60.8388671875)"/>
<path d="M0 0 C5.83763281 2.66925218 9.27407463 6.37579576 11.8515625 12.2734375 C12.89367947 18.72002157 11.6202577 23.99323354 7.8515625 29.2734375 C4.12367742 33.62023786 0.32411606 37.73297715 -4.8359375 40.3359375 C-8.57707019 42.52414719 -10.17331658 44.69216467 -12.61328125 48.1796875 C-16.80109541 53.8913119 -21.98916195 59.48145109 -29.1640625 60.84765625 C-35.42600837 61.06697561 -39.44187398 60.79689004 -44.3359375 56.6484375 C-48.72952794 52.0617222 -49.87894851 48.66033999 -50.5859375 42.3984375 C-50.30773898 34.25340307 -43.86541331 28.53143392 -38.36328125 23.17578125 C-35.82362876 20.99445715 -33.1586363 19.7068655 -30.1484375 18.2734375 C-29.70886719 17.53867188 -29.26929688 16.80390625 -28.81640625 16.046875 C-26.87292766 12.81532981 -24.49223849 10.28661911 -21.8359375 7.6484375 C-20.91167969 6.70742187 -19.98742187 5.76640625 -19.03515625 4.796875 C-13.31389707 -0.2043881 -7.38689698 -2.49811425 0 0 Z " fill="#F5F6F6" transform="translate(172.1484375,81.7265625)"/>
<path d="M0 0 C4.28045825 0.05487767 6.8967351 0.38986229 10.25 3.25 C12.32087739 5.45448238 13.94079462 7.67560805 15.375 10.33984375 C18.44378215 15.97507764 21.95144045 20.12206907 26.5625 24.5 C35.15448104 32.72899123 41.2846041 41.78606832 45.27734375 53.05859375 C46.66606187 56.1873924 48.71004523 58.43658123 51.078125 60.875 C52.25 62.25 52.25 62.25 52.25 64.25 C42.04442509 63.89808362 42.04442509 63.89808362 38.875 61.3125 C38.33875 60.631875 37.8025 59.95125 37.25 59.25 C34.61777038 57.99563813 34.61777038 57.99563813 32.25 57.25 C32.25 56.59 32.25 55.93 32.25 55.25 C31.59 55.25 30.93 55.25 30.25 55.25 C29.755 60.2 29.755 60.2 29.25 65.25 C31.56 65.25 33.87 65.25 36.25 65.25 C35.92 65.91 35.59 66.57 35.25 67.25 C34.156875 67.20875 33.06375 67.1675 31.9375 67.125 C28.16107771 66.92925334 28.16107771 66.92925334 25.25 69.25 C24.26 69.25 23.27 69.25 22.25 69.25 C22.25 68.59 22.25 67.93 22.25 67.25 C21.156875 67.270625 20.06375 67.29125 18.9375 67.3125 C15.25 67.25 15.25 67.25 12.25 66.25 C9.9093935 66.52769908 7.57375692 66.85539977 5.25 67.25 C5.25 66.59 5.25 65.93 5.25 65.25 C3.765 64.755 3.765 64.755 2.25 64.25 C3.98956658 62.51043342 6.4436622 62.87809614 8.8125 62.6875 C9.82441406 62.60371094 10.83632812 62.51992187 11.87890625 62.43359375 C13.05259766 62.34271484 13.05259766 62.34271484 14.25 62.25 C13.55399484 54.17658741 13.55399484 54.17658741 9.8125 47.25 C8.966875 46.59 8.12125 45.93 7.25 45.25 C4.17853872 41.9043011 3.226679 38.2524449 2.1875 33.9375 C1.54230055 31.37484032 0.89647357 28.81233855 0.25 26.25 C-0.02457031 24.97640625 -0.29914062 23.7028125 -0.58203125 22.390625 C-1.42304302 19.14637343 -1.42304302 19.14637343 -3.9140625 17.91015625 C-4.72617187 17.71292969 -5.53828125 17.51570313 -6.375 17.3125 C-7.19226562 17.09722656 -8.00953125 16.88195312 -8.8515625 16.66015625 C-9.47804687 16.52480469 -10.10453125 16.38945313 -10.75 16.25 C-11.08 17.24 -11.41 18.23 -11.75 19.25 C-12.75 18.25 -12.75 18.25 -13.0625 14.4375 C-13.02913586 11.31239246 -12.99919411 10.55075152 -10.9375 8.0625 C-10.215625 7.464375 -9.49375 6.86625 -8.75 6.25 C-7.71642853 4.60394174 -6.70939668 2.94036558 -5.75 1.25 C-4.11069007 -0.38930993 -2.25256326 0.03998633 0 0 Z " fill="#FAFAFA" transform="translate(60.75,77.75)"/>
<path d="M0 0 C2.75329021 1.79562405 4.52627461 3.05254922 6 6 C6.57707268 10.18377692 6.91274763 12.6223139 4.54296875 16.19921875 C2.76547766 18.22368755 0.93750656 20.12887482 -1 22 C-1.52980469 22.57105469 -2.05960938 23.14210938 -2.60546875 23.73046875 C-4 25 -4 25 -6 25 C-6.37125 23.948125 -6.7425 22.89625 -7.125 21.8125 C-8.92367564 17.5898948 -11.2780158 15.63640548 -15 13 C-15.99 12.67 -16.98 12.34 -18 12 C-18.41831404 15.28999282 -18.41831404 15.28999282 -18 19 C-16.7625 20.2065625 -16.7625 20.2065625 -15.5 21.4375 C-13 24 -13 24 -12.25 27.8125 C-12.60008523 33.26971089 -16.21229198 36.41164504 -20 40 C-20.76957031 40.78117187 -20.76957031 40.78117187 -21.5546875 41.578125 C-25.13521078 44.9457523 -28.13021402 45.90981878 -33 46 C-35.94084445 45.18309876 -36.83877028 44.20153715 -38.75 41.8125 C-40.40987685 38.07777709 -40.6883184 36.06107854 -40 32 C-37.95142613 29.03366504 -35.56347523 26.52505055 -33 24 C-32.47019531 23.42765625 -31.94039062 22.8553125 -31.39453125 22.265625 C-30 21 -30 21 -28 21 C-27.76925781 21.53109375 -27.53851563 22.0621875 -27.30078125 22.609375 C-25.18810777 27.18544245 -23.36183544 30.20395164 -19 33 C-17.515 33.495 -17.515 33.495 -16 34 C-15.58095297 30.75202267 -15.58095297 30.75202267 -16 27 C-16.825 26.030625 -17.65 25.06125 -18.5 24.0625 C-21.14998534 20.81626796 -21.58859189 19.21397624 -21.45410156 15.0793457 C-20.61449206 11.23474671 -17.97768407 9.09858184 -15.125 6.5625 C-14.56941406 6.03462891 -14.01382813 5.50675781 -13.44140625 4.96289062 C-8.76951079 0.57806344 -6.47743636 -0.54893528 0 0 Z " fill="#234040" transform="translate(170,89)"/>
<path d="M0 0 C1.5 1.375 1.5 1.375 3 3 C3 3.66 3 4.32 3 5 C3.66 5 4.32 5 5 5 C5 5.99 5 6.98 5 8 C5.99 7.34 6.98 6.68 8 6 C8 6.99 8 7.98 8 9 C10.31 9 12.62 9 15 9 C14.67 9.66 14.34 10.32 14 11 C12.906875 10.95875 11.81375 10.9175 10.6875 10.875 C6.91107771 10.67925334 6.91107771 10.67925334 4 13 C3.01 13 2.02 13 1 13 C1 12.34 1 11.68 1 11 C-0.093125 11.020625 -1.18625 11.04125 -2.3125 11.0625 C-6 11 -6 11 -9 10 C-11.3406065 10.27769908 -13.67624308 10.60539977 -16 11 C-16 10.34 -16 9.68 -16 9 C-16.99 8.67 -17.98 8.34 -19 8 C-16.88547762 5.88547762 -12.43004574 6.55438351 -9.56640625 6.37890625 C-6.8393833 6.23688035 -6.8393833 6.23688035 -5 4 C-4.01 4 -3.02 4 -2 4 C-1.34 2.68 -0.68 1.36 0 0 Z " fill="#E2E6E6" transform="translate(82,134)"/>
<path d="M0 0 C0.99 0.33 1.98 0.66 3 1 C2.34 1 1.68 1 1 1 C0.58168596 4.28999282 0.58168596 4.28999282 1 8 C2.2375 9.2065625 2.2375 9.2065625 3.5 10.4375 C6.24442292 13.2505335 6.34482714 13.62720658 6.3125 17.3125 C6.1578125 19.1378125 6.1578125 19.1378125 6 21 C5.34 21 4.68 21 4 21 C3.7525 20.113125 3.505 19.22625 3.25 18.3125 C2.20593918 14.9428119 2.20593918 14.9428119 -0.125 12.625 C-2.81832556 8.85434421 -2.44944752 6.5693831 -2 2 C-1.34 1.34 -0.68 0.68 0 0 Z " fill="#375252" transform="translate(151,100)"/>
<path d="M0 0 C1.5 1.375 1.5 1.375 3 3 C3 3.66 3 4.32 3 5 C3.66 5 4.32 5 5 5 C4.67 5.99 4.34 6.98 4 8 C1.36 7.67 -1.28 7.34 -4 7 C-4 6.34 -4 5.68 -4 5 C-3.01 4.34 -2.02 3.68 -1 3 C-0.67 2.01 -0.34 1.02 0 0 Z " fill="#2E4A4A" transform="translate(82,134)"/>
<path d="M0 0 C3.625 0.1875 3.625 0.1875 6.625 2.1875 C3.71899739 3.44414978 1.82895416 4.1875 -1.375 4.1875 C-1.375 3.5275 -1.375 2.8675 -1.375 2.1875 C-2.365 1.8575 -3.355 1.5275 -4.375 1.1875 C-3.375 0.1875 -3.375 0.1875 0 0 Z " fill="#EEF0F0" transform="translate(67.375,140.8125)"/>
<path d="M0 0 C0.66 0.66 1.32 1.32 2 2 C3.31747324 2.69748583 4.64914193 3.36959957 6 4 C4.68 4 3.36 4 2 4 C2.33 4.99 2.66 5.98 3 7 C0.28368454 6.09456151 -2.34771188 5.07525194 -5 4 C-4.360625 3.71125 -3.72125 3.4225 -3.0625 3.125 C-0.84793921 2.17176549 -0.84793921 2.17176549 0 0 Z " fill="#D9DDDD" transform="translate(76,138)"/>
<path d="M0 0 C0.99 0.33 1.98 0.66 3 1 C2.34 1 1.68 1 1 1 C1 3.64 1 6.28 1 9 C0.01 9.33 -0.98 9.66 -2 10 C-2.1953125 3.9453125 -2.1953125 3.9453125 -2 2 C-1.34 1.34 -0.68 0.68 0 0 Z " fill="#405A5A" transform="translate(151,100)"/>
</svg>
