<?xml version="1.0" encoding="UTF-8"?>
<svg version="1.1" xmlns="http://www.w3.org/2000/svg" width="225" height="225">
<path d="M0 0 C74.25 0 148.5 0 225 0 C225 74.25 225 148.5 225 225 C150.75 225 76.5 225 0 225 C0 150.75 0 76.5 0 0 Z " fill="#FF6C37" transform="translate(0,0)"/>
<path d="M0 0 C0.33 0 0.66 0 1 0 C1 33.66 1 67.32 1 102 C-32.66 102 -66.32 102 -101 102 C-101 101.67 -101 101.34 -101 101 C-100.030625 100.84144531 -99.06125 100.68289062 -98.0625 100.51953125 C-66.64139437 95.15466253 -39.11078096 80.90548926 -20.125 54.625 C-9.0168309 37.59109758 -3.2615068 19.9402692 0 0 Z " fill="#FFFDFD" transform="translate(224,123)"/>
<path d="M0 0 C34.65 0 69.3 0 105 0 C105 34.98 105 69.96 105 106 C104.67 106 104.34 106 104 106 C103.83564453 104.47632812 103.83564453 104.47632812 103.66796875 102.921875 C100.90345268 78.40923413 92.57584729 53.76726937 74.23828125 36.32421875 C73 35 73 35 73 33 C72.42894531 32.75378906 71.85789062 32.50757813 71.26953125 32.25390625 C68.63007863 30.79562004 66.84176687 29.04711885 64.6875 26.9375 C46.91618545 10.75105414 23.51502034 3.36075992 0 1 C0 0.67 0 0.34 0 0 Z " fill="#FFFDFD" transform="translate(120,0)"/>
<path d="M0 0 C0.33 0 0.66 0 1 0 C1.21914063 1.24652344 1.43828125 2.49304688 1.6640625 3.77734375 C5.82231801 26.50285035 13.12506414 46.72358506 29 64 C29.44714355 64.48952148 29.89428711 64.97904297 30.35498047 65.48339844 C49.17719599 85.86282437 75.30446511 98.80285945 103 101 C103 101.33 103 101.66 103 102 C69.01 102 35.02 102 0 102 C0 68.34 0 34.68 0 0 Z " fill="#FFFDFD" transform="translate(0,123)"/>
<path d="M0 0 C34.98 0 69.96 0 106 0 C106 0.33 106 0.66 106 1 C104.98421875 1.10957031 103.9684375 1.21914063 102.921875 1.33203125 C71.25509004 4.90039195 43.65617161 18.95063923 23.51953125 44.09765625 C14.85165125 56.1372073 7.38408103 70.36993496 3.875 84.8125 C3.70323242 85.50666016 3.53146484 86.20082031 3.35449219 86.91601562 C2.0802214 92.24568412 1.26353129 97.51854915 1 103 C0.67 103 0.34 103 0 103 C0 69.01 0 35.02 0 0 Z " fill="#FFFDFD" transform="translate(0,0)"/>
<path d="M0 0 C0.51046875 0.54527344 1.0209375 1.09054688 1.546875 1.65234375 C2.32804687 2.47412109 2.32804687 2.47412109 3.125 3.3125 C3.51171875 3.73402344 3.8984375 4.15554687 4.296875 4.58984375 C-0.2734534 16.41892901 -20.34349059 24.64198468 -30.703125 30.58984375 C-31.3425 30.95722656 -31.981875 31.32460937 -32.640625 31.703125 C-41.20698456 36.58984375 -41.20698456 36.58984375 -43.703125 36.58984375 C-43.043125 40.54984375 -42.383125 44.50984375 -41.703125 48.58984375 C-45.54594236 46.66843507 -47.50744427 44.99716215 -50.453125 41.96484375 C-51.25234375 41.14757812 -52.0515625 40.3303125 -52.875 39.48828125 C-53.47828125 38.86179688 -54.0815625 38.2353125 -54.703125 37.58984375 C-53.36865176 34.64994703 -51.88846308 32.49177936 -49.66894531 30.15405273 C-49.05359924 29.50335312 -48.43825317 28.8526535 -47.80426025 28.18223572 C-44.95416305 25.22888752 -42.0973488 22.28271425 -39.22216797 19.35375977 C-37.71900691 17.81259108 -36.22755345 16.25990922 -34.74853516 14.69555664 C-19.94127981 -0.95825358 -19.94127981 -0.95825358 -8.54980469 -2.42944336 C-5.05565809 -2.40576947 -2.71896632 -2.25125422 0 0 Z " fill="#FFFDFC" transform="translate(112.703125,127.41015625)"/>
<path d="M0 0 C1.72265625 1.515625 1.72265625 1.515625 3 3 C2.52800171 3.32988922 2.05600342 3.65977844 1.56970215 3.99966431 C-4.18199081 8.15012734 -9.1183461 12.85801513 -14.09375 17.8984375 C-15.34194519 19.15087753 -15.34194519 19.15087753 -16.61535645 20.42861938 C-19.24834155 23.07271818 -21.8742515 25.72371669 -24.5 28.375 C-26.29380631 30.17884748 -28.08807261 31.98223764 -29.8828125 33.78515625 C-34.26054215 38.18482928 -38.63249845 42.59017473 -43 47 C-44.12894876 46.06725891 -45.25300876 45.12859878 -46.375 44.1875 C-47.00148438 43.66542969 -47.62796875 43.14335938 -48.2734375 42.60546875 C-50 41 -50 41 -52 38 C-49.21758255 35.16721153 -46.42792287 32.34175719 -43.63208008 29.5222168 C-42.22827838 28.10370567 -40.82987502 26.67985854 -39.43164062 25.25585938 C-31.60155336 17.3704358 -23.44713091 9.82622454 -13.9375 4 C-12.58978516 3.1646875 -12.58978516 3.1646875 -11.21484375 2.3125 C-7.22957144 -0.04914285 -4.69398684 -0.32940259 0 0 Z " fill="#FFFCFC" transform="translate(146,68)"/>
<path d="M0 0 C2.9375 0.75 2.9375 0.75 4.9375 2.75 C5.45703125 5.48046875 5.45703125 5.48046875 4.9375 8.75 C3.14018161 11.20451811 0.92906129 13.09098364 -1.375 15.0625 C-2.3340625 15.91714844 -2.3340625 15.91714844 -3.3125 16.7890625 C-7.82960403 20.78322834 -12.491239 24.5929912 -17.19921875 28.359375 C-21.31876831 31.79888978 -25.21764298 35.46115251 -29.1171875 39.14648438 C-32.66246153 42.49022891 -36.28798234 45.66643035 -40.0625 48.75 C-43.46312014 47.34284684 -44.95479698 45.72131772 -47.0625 42.75 C-41.77153066 37.43585623 -36.47785878 32.12441763 -31.18072796 26.81641579 C-28.7211211 24.35159128 -26.26245278 21.88584557 -23.8059082 19.41796875 C-20.98144858 16.58056145 -18.15294938 13.74721192 -15.32421875 10.9140625 C-14.44287766 10.02756012 -13.56153656 9.14105774 -12.65348816 8.22769165 C-11.83286392 7.40699188 -11.01223969 6.58629211 -10.16674805 5.74072266 C-9.44504929 5.01680328 -8.72335052 4.29288391 -7.9797821 3.54702759 C-3.85926803 -0.31504229 -3.85926803 -0.31504229 0 0 Z " fill="#FFF8F6" transform="translate(151.0625,73.25)"/>
<path d="M0 0 C3.5625 1.5 3.5625 1.5 6 3 C4.34136495 7.32504836 1.128959 10.09418825 -2.125 13.25 C-2.68832031 13.80429687 -3.25164062 14.35859375 -3.83203125 14.9296875 C-5.21686028 16.29104485 -6.60783204 17.64614859 -8 19 C-6.46356148 22.68069887 -4.21849055 24.98775204 -1.375 27.75 C-0.14910156 28.94882813 -0.14910156 28.94882813 1.1015625 30.171875 C1.72804687 30.77515625 2.35453125 31.3784375 3 32 C-1.2594668 34.83964453 -4.99975838 34.63185581 -10 34 C-14.98669007 31.50665497 -18.49675474 28.00649051 -21 23 C-21.49813129 17.54505412 -21.71117027 12.62976519 -19.5 7.5625 C-13.77100384 1.69027894 -8.36634208 -1.4791323 0 0 Z " fill="#FFFCFB" transform="translate(170,42)"/>
<path d="M0 0 C1 3 1 3 0.28515625 5.12890625 C-7.90102407 21.42280509 -22.12810682 34.33028315 -35 47 C-36.17825358 46.09827532 -37.34231577 45.17798498 -38.5 44.25 C-39.47453125 43.48429687 -39.47453125 43.48429687 -40.46875 42.703125 C-42 41 -42 41 -42 37 C-39.95300278 34.76772712 -37.94731479 32.80669408 -35.6875 30.8125 C-35.0488501 30.23443604 -34.4102002 29.65637207 -33.75219727 29.06079102 C-29.22591306 24.99566899 -24.55581801 21.13152582 -19.8046875 17.33203125 C-15.86892589 14.05953866 -12.13888195 10.58085156 -8.41381836 7.07202148 C-5.71622434 4.53926875 -3.0214032 2.14046395 0 0 Z " fill="#FFFAF8" transform="translate(155,85)"/>
<path d="M0 0 C3 1 3 1 4.6875 3.5625 C6.72014357 8.88609031 6.79897442 12.92266652 4.75 18.25 C3.06185617 20.90279745 1.33504562 22.90651082 -1 25 C-4.45201639 23.52278578 -6.64961936 21.56205999 -9.25 18.875 C-9.95640625 18.15054688 -10.6628125 17.42609375 -11.390625 16.6796875 C-11.92171875 16.12539062 -12.4528125 15.57109375 -13 15 C-11.38989473 10.92623969 -8.46177729 8.23492931 -5.375 5.25 C-4.859375 4.74339844 -4.34375 4.23679687 -3.8125 3.71484375 C-2.54616661 2.47196098 -1.2736856 1.23534724 0 0 Z " fill="#FFF5F3" transform="translate(177,48)"/>
<path d="M0 0 C3.42527887 1.47348708 5.64955058 3.40907846 8.25 6.0625 C8.95640625 6.77535156 9.6628125 7.48820313 10.390625 8.22265625 C12 10 12 10 12 11 C5.2314676 11.10152799 -1.30324864 11.03026944 -8 10 C-6.34908222 5.70761377 -3.26245434 3.1206085 0 0 Z " fill="#FFF2EF" transform="translate(54,166)"/>
<path d="M0 0 C4.28359673 1.8855148 6.15103592 4.35965701 9 8 C2.63460728 10.11293829 -3.31006781 11.46048934 -10 12 C-8.52278578 8.54798361 -6.56205999 6.35038064 -3.875 3.75 C-3.15054688 3.04359375 -2.42609375 2.3371875 -1.6796875 1.609375 C-1.12539062 1.07828125 -0.57109375 0.5471875 0 0 Z " fill="#FFF2EE" transform="translate(91,108)"/>
<path d="M0 0 C4 4 8 8 12 12 C11.01 12.66 10.02 13.32 9 14 C7.2978302 12.4324482 5.61359446 10.84540216 3.9375 9.25 C2.99777344 8.36828125 2.05804688 7.4865625 1.08984375 6.578125 C-1 4 -1 4 -0.80859375 1.671875 C-0.54175781 1.12015625 -0.27492187 0.5684375 0 0 Z " fill="#FF8458" transform="translate(57,163)"/>
<path d="M0 0 C2 0.125 2 0.125 4 1 C4.66 2.32 5.32 3.64 6 5 C2.7 5.33 -0.6 5.66 -4 6 C-2 2 -2 2 0 0 Z " fill="#FFEEE9" transform="translate(101,119)"/>
<path d="M0 0 C2.5 2.3125 2.5 2.3125 5 5 C5 5.99 5 6.98 5 8 C2.69 6.35 0.38 4.7 -2 3 C-1.34 2.67 -0.68 2.34 0 2 C0 1.34 0 0.68 0 0 Z " fill="#FF652A" transform="translate(93,105)"/>
<path d="M0 0 C0.33 0.99 0.66 1.98 1 3 C-1.97 5.475 -1.97 5.475 -5 8 C-4.45773019 4.20411134 -2.79872437 2.52788007 0 0 Z " fill="#FF7542" transform="translate(124,109)"/>
<path d="M0 0 C0.66 0.33 1.32 0.66 2 1 C2 2.98 2 4.96 2 7 C1.01 7.33 0.02 7.66 -1 8 C-1.04241723 5.66705225 -1.04092937 3.33297433 -1 1 C-0.67 0.67 -0.34 0.34 0 0 Z " fill="#FF6930" transform="translate(177,56)"/>
</svg>
