<?xml version="1.0" encoding="UTF-8"?>
<svg version="1.1" xmlns="http://www.w3.org/2000/svg" width="225" height="225">
<path d="M0 0 C74.25 0 148.5 0 225 0 C225 74.25 225 148.5 225 225 C150.75 225 76.5 225 0 225 C0 150.75 0 76.5 0 0 Z " fill="#FE4B4B" transform="translate(0,0)"/>
<path d="M0 0 C74.25 0 148.5 0 225 0 C225 23.76 225 47.52 225 72 C223.68 71.67 222.36 71.34 221 71 C218.44973482 72.03643227 216.14290662 73.12660156 213.7265625 74.41796875 C213.01438065 74.78669098 212.30219879 75.15541321 211.56843567 75.53530884 C209.24761691 76.74096944 206.93637146 77.96383976 204.625 79.1875 C203.03307764 80.01932392 201.44070903 80.85029435 199.84790039 81.68041992 C189.34951037 87.16705914 178.9166902 92.77227233 168.55859375 98.51953125 C167.04032328 99.34866702 165.52075917 100.17543775 164 101 C163.12102051 101.48388184 162.24204102 101.96776367 161.33642578 102.46630859 C160.45325684 102.93504395 159.57008789 103.4037793 158.66015625 103.88671875 C157.86359619 104.31557373 157.06703613 104.74442871 156.24633789 105.1862793 C153.55583323 106.16089641 152.6386268 106.03289516 150 105 C148.46513367 103.26989746 148.46513367 103.26989746 146.99487305 100.99023438 C146.43716721 100.13844604 145.87946136 99.28665771 145.30485535 98.40905762 C144.71312027 97.4800061 144.12138519 96.55095459 143.51171875 95.59375 C142.89029495 94.63988403 142.26887115 93.68601807 141.62861633 92.70324707 C139.6371364 89.64253889 137.6616472 86.57191053 135.6875 83.5 C133.72148291 80.45842894 131.75210639 77.41911048 129.77851868 74.38244629 C128.55133652 72.49237534 127.32886379 70.59923509 126.11198425 68.70251465 C122.35478123 62.89273495 118.33976139 57.38862909 114 52 C110.05955603 52.81205609 108.97710322 53.86633903 106.65625 57.20703125 C105.96144531 58.20299316 105.26664062 59.19895508 104.55078125 60.22509766 C103.69845593 61.48200067 102.84842489 62.74046086 102 64 C101.22438721 65.14731598 101.22438721 65.14731598 100.43310547 66.31781006 C96.09077412 72.75363202 91.79325665 79.2188849 87.5 85.6875 C86.18771594 87.6609509 84.87521771 89.63425941 83.5625 91.60742188 C80.37252799 96.40330833 77.1852082 101.20094849 74 106 C69.85214168 105.2513225 66.69268223 103.99886566 62.94140625 102.04296875 C62.36422348 101.74389114 61.78704071 101.44481354 61.19236755 101.13667297 C59.31232916 100.1600164 57.43734469 99.17408494 55.5625 98.1875 C54.25731883 97.50620884 52.95197874 96.82522207 51.64648438 96.14453125 C43.72417919 92.00370167 35.84446261 87.78662193 28 83.5 C27.11006348 83.01402344 26.22012695 82.52804688 25.30322266 82.02734375 C21.4939127 79.93997163 17.69802602 77.83531221 13.93359375 75.66796875 C13.33224609 75.32765625 12.73089844 74.98734375 12.11132812 74.63671875 C10.58753648 73.77258486 9.07254728 72.89297528 7.55859375 72.01171875 C4.65935947 70.59757051 4.65935947 70.59757051 0 72 C0 48.24 0 24.48 0 0 Z " fill="#FEFEFE" transform="translate(0,0)"/>
<path d="M0 0 C2.02476755 2.02476755 2.60024 3.15627598 3.60961914 5.76733398 C3.91559021 6.55086243 4.22156128 7.33439087 4.5368042 8.1416626 C4.86626038 9.00112488 5.19571655 9.86058716 5.53515625 10.74609375 C5.88596252 11.64865906 6.2367688 12.55122437 6.59820557 13.48114014 C7.35891316 15.43972399 8.11731263 17.39920549 8.87368774 19.35946655 C10.0679196 22.45153224 11.27039134 25.54027067 12.4753418 28.62817383 C16.21835299 38.22616994 19.94024852 47.8318574 23.62245178 57.45335388 C25.1444023 61.42179135 26.67920216 65.38518155 28.21652222 69.34768677 C28.94515572 71.23566578 29.6676304 73.12603363 30.38381958 75.01876831 C31.38284929 77.65788276 32.40191754 80.2884088 33.42578125 82.91796875 C33.71471252 83.69710632 34.0036438 84.4762439 34.30133057 85.2789917 C34.58385681 85.9928302 34.86638306 86.7066687 35.1574707 87.44213867 C35.39407913 88.0606218 35.63068756 88.67910492 35.87446594 89.31632996 C37.53999825 91.80777553 39.30323223 92.71806615 42 94 C45.2402149 94.67636555 45.2402149 94.67636555 48.81518555 94.93603516 C49.81463542 95.02824152 49.81463542 95.02824152 50.8342762 95.12231064 C53.03822455 95.3188196 55.24314025 95.49322252 57.44921875 95.6640625 C58.21683722 95.72687031 58.98445568 95.78967812 59.77533531 95.85438919 C76.52425517 97.20859126 93.23991936 97.4637865 110.03588867 97.39111328 C114.02956418 97.37394937 118.02264259 97.38425869 122.01629829 97.40143967 C137.74679153 97.45867129 153.35074085 97.17392677 169.01171875 95.6015625 C170.25750198 95.47695648 171.50328522 95.35235046 172.78681946 95.22396851 C180.10066215 94.43113298 180.10066215 94.43113298 187 92 C192.7721746 84.61040722 195.47009449 73.32400518 198.78811646 64.60559082 C200.646624 59.72269686 202.52152093 54.84609507 204.39453125 49.96875 C204.96514534 48.48100067 204.96514534 48.48100067 205.54728699 46.9631958 C209.4883217 36.70013776 213.51597384 26.47183931 217.5625 16.25 C218.05614044 15.00228821 218.05614044 15.00228821 218.55975342 13.72937012 C220.37091401 9.15201735 222.184276 4.57554441 224 0 C224.33 0 224.66 0 225 0 C225 49.5 225 99 225 150 C150.75 150 76.5 150 0 150 C0 100.5 0 51 0 0 Z " fill="#FEFEFE" transform="translate(0,75)"/>
<path d="M0 0 C2.6128158 0.37285282 3.79613001 0.79341449 5.67481995 2.6971283 C6.2146904 3.42605789 6.75456085 4.15498749 7.31079102 4.90600586 C7.91649933 5.72269745 8.52220764 6.53938904 9.14627075 7.38082886 C12.20026718 11.69588151 15.13687632 16.07795176 18.02734375 20.50390625 C18.66112442 21.4677977 19.29490509 22.43168915 19.94789124 23.42478943 C21.94797292 26.46838259 23.94281589 29.5153674 25.9375 32.5625 C27.30238782 34.6415036 28.66761898 36.72028184 30.03320312 38.79882812 C33.35944012 43.86328837 36.68139661 48.93053481 40 54 C44.14785832 53.2513225 47.30731777 51.99886566 51.05859375 50.04296875 C51.6357312 49.74389114 52.21286865 49.44481354 52.80749512 49.13667297 C54.68754456 48.15995356 56.56256292 47.17399263 58.4375 46.1875 C59.74340128 45.50618509 61.04947394 44.82519856 62.35571289 44.14453125 C70.26253243 40.01380528 78.11672147 35.79159401 85.9375 31.5 C88.51193342 30.09102113 91.08679462 28.68284067 93.66259766 27.27636719 C95.18411206 26.44552561 96.7046721 25.61293313 98.22412109 24.77832031 C100.18254157 23.71009096 102.15086629 22.66382366 104.125 21.625 C105.17945313 21.06039062 106.23390625 20.49578125 107.3203125 19.9140625 C110 19 110 19 112.3671875 19.8359375 C112.90601563 20.22007813 113.44484375 20.60421875 114 21 C113.40532182 24.31223502 112.6010237 27.32858713 111.38037109 30.46264648 C111.04794907 31.32193253 110.71552704 32.18121857 110.37303162 33.06654358 C110.01016556 33.99204514 109.6472995 34.91754669 109.2734375 35.87109375 C108.89337051 36.84980942 108.51330353 37.82852509 108.12171936 38.8368988 C106.87698303 42.03874059 105.62622105 45.23818732 104.375 48.4375 C103.51548796 50.64265576 102.65619598 52.84789731 101.79711914 55.05322266 C99.62158426 60.63376649 97.44015795 66.21198599 95.25653076 71.78936768 C94.05778407 74.85235266 92.86084146 77.91603555 91.66455078 80.97998047 C89.91615365 85.45681828 88.16358178 89.93199423 86.40679932 94.4055481 C85.76283333 96.046159 85.11988163 97.68716841 84.47796631 99.32858276 C83.59173713 101.59287131 82.70089079 103.85528453 81.80859375 106.1171875 C81.55110855 106.77738388 81.29362335 107.43758026 81.02833557 108.11778259 C79.88603352 110.99924426 78.72977436 113.40533846 77 116 C73.30679614 114.58671773 69.81970213 112.94623396 66.30859375 111.12890625 C65.20878174 110.55994629 64.10896973 109.99098633 62.97583008 109.40478516 C61.80818115 108.79683105 60.64053223 108.18887695 59.4375 107.5625 C58.83763275 107.2510907 58.2377655 106.9396814 57.61972046 106.61883545 C48.96545007 102.12474355 40.38792243 97.50629979 31.86694336 92.76391602 C26.34353938 89.70203519 20.75030192 86.83724263 15.07983398 84.05932617 C8.70633873 80.91133898 2.51021672 77.45905532 -3.70117188 74.00488281 C-9.65494909 70.70567061 -15.67764405 67.63436224 -21.7890625 64.63671875 C-26.99261731 61.98429847 -31.99786205 59.01410876 -37 56 C-35.71670362 52.5498658 -34.22651976 49.57804736 -32.20605469 46.50439453 C-31.64497009 45.64645294 -31.0838855 44.78851135 -30.50579834 43.90457153 C-29.90060364 42.98989105 -29.29540894 42.07521057 -28.671875 41.1328125 C-28.04524963 40.17986298 -27.41862427 39.22691345 -26.77301025 38.24508667 C-25.44709786 36.23141773 -24.1188967 34.21925425 -22.78857422 32.20849609 C-20.76483332 29.1474365 -18.7510973 26.07996981 -16.73828125 23.01171875 C-15.4459128 21.05168738 -14.15296273 19.09203937 -12.859375 17.1328125 C-12.26227722 16.22218048 -11.66517944 15.31154846 -11.04998779 14.37332153 C-7.65683484 9.26167236 -4.09766519 4.56843759 0 0 Z " fill="#BC4043" transform="translate(111,51)"/>
<path d="M0 0 C0.53882813 0.38414063 1.07765625 0.76828125 1.6328125 1.1640625 C1.03672984 4.48942585 0.22515132 7.51311334 -1.00268555 10.65844727 C-1.33829498 11.52409805 -1.67390442 12.38974884 -2.01968384 13.28163147 C-2.38572723 14.21349777 -2.75177063 15.14536407 -3.12890625 16.10546875 C-3.70310806 17.58188087 -3.70310806 17.58188087 -4.28890991 19.08811951 C-5.54012899 22.30252545 -6.79717438 25.51461417 -8.0546875 28.7265625 C-8.9168903 30.93542784 -9.77878621 33.144413 -10.64038086 35.35351562 C-11.94738449 38.7043855 -13.25474489 42.05511168 -14.563797 45.40518188 C-17.29076058 52.3872607 -19.99196274 59.37864716 -22.671875 66.37890625 C-23.62485345 68.86042994 -24.57838531 71.34174017 -25.53213501 73.82296753 C-26.1293211 75.38061386 -26.72420059 76.93914653 -27.31674194 78.49856567 C-28.13070514 80.63952029 -28.95299763 82.77708878 -29.77734375 84.9140625 C-30.23246338 86.10515625 -30.68758301 87.29625 -31.15649414 88.5234375 C-32.3671875 91.1640625 -32.3671875 91.1640625 -34.3671875 92.1640625 C-34.74746094 91.51566406 -35.12773437 90.86726563 -35.51953125 90.19921875 C-40.3044211 82.23138249 -45.44697062 74.53203507 -50.6796875 66.8515625 C-51.41678955 65.76794434 -52.1538916 64.68432617 -52.91333008 63.56787109 C-56.21695563 58.72546591 -59.53782083 53.90003486 -62.94921875 49.1328125 C-63.4702417 48.39844971 -63.99126465 47.66408691 -64.52807617 46.9074707 C-65.47686476 45.57517977 -66.43608373 44.25023128 -67.4074707 42.93432617 C-70.37066498 38.76152297 -70.37066498 38.76152297 -70.35571289 36.19262695 C-68.80448941 33.0093432 -66.39081066 32.24969552 -63.26171875 30.6953125 C-62.63443878 30.37823837 -62.00715881 30.06116425 -61.36087036 29.73448181 C-59.30640152 28.6987009 -57.24316334 27.68176266 -55.1796875 26.6640625 C-53.04524107 25.59231423 -50.91346048 24.51539818 -48.78193665 23.43785095 C-47.35207878 22.71509175 -45.92148207 21.99379241 -44.49015808 21.27394104 C-38.35443728 18.18185772 -32.31678088 14.92753902 -26.3046875 11.6015625 C-22.99360678 9.78646479 -19.6803364 7.97538157 -16.3671875 6.1640625 C-15.63612793 5.7623584 -14.90506836 5.3606543 -14.15185547 4.94677734 C-12.19054089 3.87701083 -10.21927227 2.82931488 -8.2421875 1.7890625 C-7.18773437 1.22445312 -6.13328125 0.65984375 -5.046875 0.078125 C-2.3671875 -0.8359375 -2.3671875 -0.8359375 0 0 Z " fill="#7D353B" transform="translate(223.3671875,70.8359375)"/>
</svg>
